<svg version="1.2" xmlns="http://www.w3.org/2000/svg" viewBox="0 0 3710 3710" width="500" height="500">
	<title>Wavy_Bus-22_Single-12-ai</title>
	<defs>
		<linearGradient id="g1" x1="1450.2" y1="2752.2" x2="-234.9" y2="-161.7" gradientUnits="userSpaceOnUse">
			<stop offset="0" stop-color="#80cff9"/>
			<stop offset="1" stop-color="#60d6be"/>
			<stop offset="1" stop-color="#60d6be"/>
		</linearGradient>
		<clipPath clipPathUnits="userSpaceOnUse" id="cp1">
			<path d="m907.19 1432.9c-406.72-390.22-527.53-813.93-344.28-987.63 185.68-176 431.94-64.75 559.32 155.66 81.5 141.02 220.25 13.2 354.2 187.69 117.57 153.16 12.59 457.91-13.63 622.31-55.88 350.32 88.04 514.76 202.4 677.39l-615 72.32c22.38-58.55 43.85-109.62 54.33-145.82 54.75-188.98 62.73-268.91-197.34-581.92z"/>
		</clipPath>
		<linearGradient id="g2" x1="864.1" y1="1002.4" x2="1699" y2="2376.8" gradientUnits="userSpaceOnUse">
			<stop offset="0" stop-color="#8cb7e2"/>
			<stop offset="0" stop-color="#8cb7e2"/>
			<stop offset="1" stop-color="#70d5f6"/>
		</linearGradient>
		<clipPath clipPathUnits="userSpaceOnUse" id="cp2">
			<path d="m918.1 1340.76c36.54 282.16 161.87 173.03 290.81 186.14 169.71 192.78 206.26 385.86 9.5 579.46l-245.53-7.74c-90.01 6.37-198.27-8.64-206.36-128.54-9.15-135.61 12.66-224.99-147.3-273.3-159.96-48.32-239.53-161.44-194.07-306.11 47.84-152.24-127.18-329.28-27.42-439.25 173.84-191.6 482.33 95.53 520.37 389.34z"/>
		</clipPath>
		<linearGradient id="g3" x1="1868.2" y1="3542.3" x2="1669.5" y2="3625.7" gradientUnits="userSpaceOnUse">
			<stop offset="0" stop-color="#40447e"/>
			<stop offset="1" stop-color="#3c3b6b"/>
		</linearGradient>
		<linearGradient id="g4" x1="1661.8" y1="3051.3" x2="1462.8" y2="3134.9" gradientUnits="userSpaceOnUse">
			<stop offset="0" stop-color="#40447e"/>
			<stop offset="1" stop-color="#3c3b6b"/>
		</linearGradient>
		<linearGradient id="g5" x1="441.9" y1="1650.9" x2="2325" y2="1650.9" gradientUnits="userSpaceOnUse">
			<stop offset="0" stop-color="#40447e"/>
			<stop offset="1" stop-color="#3c3b6b"/>
		</linearGradient>
		<linearGradient id="g6" x1="2467.7" y1="2366" x2="1096.4" y2="4607.8" gradientUnits="userSpaceOnUse">
			<stop offset="0" stop-color="#44ffed"/>
			<stop offset="1" stop-color="#5674f2"/>
			<stop offset="1" stop-color="#5673f2"/>
		</linearGradient>
		<linearGradient id="g7" x1="441.9" y1="2787.8" x2="3278.7" y2="2787.8" gradientUnits="userSpaceOnUse">
			<stop offset="0" stop-color="#40447e"/>
			<stop offset="1" stop-color="#3c3b6b"/>
		</linearGradient>
		<linearGradient id="g8" x1="720.1" y1="2809.8" x2="2798.6" y2="2809.8" gradientUnits="userSpaceOnUse">
			<stop offset="0" stop-color="#40447e"/>
			<stop offset="1" stop-color="#3c3b6b"/>
		</linearGradient>
		<linearGradient id="g9" x1="3023.3" y1="1067" x2="2652.1" y2="1673.8" gradientUnits="userSpaceOnUse">
			<stop offset="0" stop-color="#ffc444"/>
			<stop offset="1" stop-color="#f36f56"/>
		</linearGradient>
		<linearGradient id="g10" x1="2456.9" y1="1044.8" x2="2281.7" y2="1667.5" gradientUnits="userSpaceOnUse">
			<stop offset="0" stop-color="#ffc444"/>
			<stop offset="1" stop-color="#f36f56"/>
		</linearGradient>
		<linearGradient id="g11" x1="2368" y1="2102.1" x2="1891.9" y2="2880.5" gradientUnits="userSpaceOnUse">
			<stop offset="0" stop-color="#aa80f9"/>
			<stop offset="1" stop-color="#6165d7"/>
		</linearGradient>
		<linearGradient id="g12" x1="2263.1" y1="2150" x2="2355.3" y2="2671.7" gradientUnits="userSpaceOnUse">
			<stop offset="0" stop-color="#aa80f9"/>
			<stop offset="1" stop-color="#6165d7"/>
		</linearGradient>
		<linearGradient id="g13" x1="2014.3" y1="1124.6" x2="1375.4" y2="2169" gradientUnits="userSpaceOnUse">
			<stop offset="0" stop-color="#ff9085"/>
			<stop offset="1" stop-color="#fb6fbb"/>
		</linearGradient>
		<linearGradient id="g14" x1="970.8" y1="1413.1" x2="812.5" y2="1906.9" gradientUnits="userSpaceOnUse">
			<stop offset="0" stop-color="#ff9085"/>
			<stop offset="1" stop-color="#fb6fbb"/>
		</linearGradient>
		<linearGradient id="g15" x1="1074.1" y1="1571.7" x2="986.9" y2="1844" gradientUnits="userSpaceOnUse">
			<stop offset="0" stop-color="#ff9085"/>
			<stop offset="1" stop-color="#fb6fbb"/>
		</linearGradient>
		<linearGradient id="g16" x1="1202.2" y1="1645.7" x2="1148.6" y2="1812.9" gradientUnits="userSpaceOnUse">
			<stop offset="0" stop-color="#ff9085"/>
			<stop offset="1" stop-color="#fb6fbb"/>
		</linearGradient>
		<linearGradient id="g17" x1="1490.1" y1="1213.5" x2="1246.8" y2="1972.7" gradientUnits="userSpaceOnUse">
			<stop offset="0" stop-color="#ff9085"/>
			<stop offset="1" stop-color="#fb6fbb"/>
		</linearGradient>
		<linearGradient id="g18" x1="1617.9" y1="1273.6" x2="1402.1" y2="1947" gradientUnits="userSpaceOnUse">
			<stop offset="0" stop-color="#ff9085"/>
			<stop offset="1" stop-color="#fb6fbb"/>
		</linearGradient>
		<linearGradient id="g19" x1="1795.3" y1="1172.2" x2="1535.7" y2="1982.3" gradientUnits="userSpaceOnUse">
			<stop offset="0" stop-color="#ff9085"/>
			<stop offset="1" stop-color="#fb6fbb"/>
		</linearGradient>
		<linearGradient id="g20" x1="1887.8" y1="1328.6" x2="1698.2" y2="1920.4" gradientUnits="userSpaceOnUse">
			<stop offset="0" stop-color="#ff9085"/>
			<stop offset="1" stop-color="#fb6fbb"/>
		</linearGradient>
		<linearGradient id="g21" x1="1973.6" y1="1499.5" x2="1860.3" y2="1853.1" gradientUnits="userSpaceOnUse">
			<stop offset="0" stop-color="#ff9085"/>
			<stop offset="1" stop-color="#fb6fbb"/>
		</linearGradient>
		<linearGradient id="g22" x1="1285.6" y1="2155.3" x2="907.8" y2="2773" gradientUnits="userSpaceOnUse">
			<stop offset="0" stop-color="#e38ddd"/>
			<stop offset="1" stop-color="#9571f6"/>
		</linearGradient>
		<linearGradient id="g23" x1="708" y1="2235.1" x2="551.5" y2="2483.5" gradientUnits="userSpaceOnUse">
			<stop offset="0" stop-color="#ff9085"/>
			<stop offset="1" stop-color="#fb6fbb"/>
		</linearGradient>
		<linearGradient id="g24" x1="1018.4" y1="2220" x2="1046.8" y2="2764.5" gradientUnits="userSpaceOnUse">
			<stop offset="0" stop-color="#ffc444"/>
			<stop offset="1" stop-color="#f36f56"/>
		</linearGradient>
		<linearGradient id="g25" x1="1129.3" y1="2300.2" x2="1087.6" y2="2773.8" gradientUnits="userSpaceOnUse">
			<stop offset="0" stop-color="#aa80f9"/>
			<stop offset="1" stop-color="#6165d7"/>
		</linearGradient>
		<linearGradient id="g26" x1="2340" y1="2753.7" x2="2358.7" y2="2992.1" gradientUnits="userSpaceOnUse">
			<stop offset="0" stop-color="#aa80f9"/>
			<stop offset="1" stop-color="#6165d7"/>
		</linearGradient>
		<linearGradient id="g27" x1="2320" y1="2889.2" x2="2316.6" y2="2641.2" gradientUnits="userSpaceOnUse">
			<stop offset="0" stop-color="#ffc444"/>
			<stop offset="1" stop-color="#f36f56"/>
		</linearGradient>
		<linearGradient id="g28" x1="2661.6" y1="2716.6" x2="2681.7" y2="2972.9" gradientUnits="userSpaceOnUse">
			<stop offset="0" stop-color="#aa80f9"/>
			<stop offset="1" stop-color="#6165d7"/>
		</linearGradient>
		<linearGradient id="g29" x1="2625.3" y1="2881.6" x2="2621.9" y2="2636.5" gradientUnits="userSpaceOnUse">
			<stop offset="0" stop-color="#ffc444"/>
			<stop offset="1" stop-color="#f36f56"/>
		</linearGradient>
		<linearGradient id="g30" x1="2280.3" y1="2066" x2="2445.2" y2="2066" gradientUnits="userSpaceOnUse">
			<stop offset="0" stop-color="#ff9085"/>
			<stop offset="1" stop-color="#fb6fbb"/>
		</linearGradient>
		<linearGradient id="g31" x1="2291.2" y1="2066" x2="2445.1" y2="2066" gradientUnits="userSpaceOnUse">
			<stop offset="0" stop-color="#ff9085"/>
			<stop offset="1" stop-color="#fb6fbb"/>
		</linearGradient>
		<linearGradient id="g32" x1="2327.6" y1="2054.5" x2="2676.9" y2="2054.5" gradientUnits="userSpaceOnUse">
			<stop offset="0" stop-color="#ff9085"/>
			<stop offset="1" stop-color="#fb6fbb"/>
		</linearGradient>
		<linearGradient id="g33" x1="2771.6" y1="1331.3" x2="3097.4" y2="1629.5" gradientUnits="userSpaceOnUse">
			<stop offset="0" stop-color="#26264f"/>
			<stop offset="1" stop-color="#444b8c"/>
		</linearGradient>
		<linearGradient id="g34" x1="1747.7" y1="1408.6" x2="1808" y2="1408.6" gradientUnits="userSpaceOnUse">
			<stop offset="0" stop-color="#893976"/>
			<stop offset="1" stop-color="#311944"/>
		</linearGradient>
		<linearGradient id="g35" x1="2148.1" y1="1566.5" x2="2770.5" y2="1936.4" gradientUnits="userSpaceOnUse">
			<stop offset="0" stop-color="#aa80f9"/>
			<stop offset="1" stop-color="#6165d7"/>
		</linearGradient>
		<linearGradient id="g36" x1="2248.6" y1="1466.8" x2="2902.2" y2="1855.2" gradientUnits="userSpaceOnUse">
			<stop offset="0" stop-color="#aa80f9"/>
			<stop offset="1" stop-color="#6165d7"/>
		</linearGradient>
		<linearGradient id="g37" x1="2364.5" y1="1951" x2="2255.3" y2="2132" gradientUnits="userSpaceOnUse">
			<stop offset="0" stop-color="#6165d7"/>
			<stop offset="1" stop-color="#aa80f9"/>
		</linearGradient>
		<linearGradient id="g38" x1="2194.7" y1="1676.1" x2="2162.6" y2="1781.1" gradientUnits="userSpaceOnUse">
			<stop offset="0" stop-color="#26264f"/>
			<stop offset="1" stop-color="#444b8c"/>
		</linearGradient>
		<linearGradient id="g39" x1="2237.8" y1="1913.3" x2="2331.5" y2="1913.3" gradientUnits="userSpaceOnUse">
			<stop offset="0" stop-color="#893976"/>
			<stop offset="1" stop-color="#311944"/>
		</linearGradient>
		<linearGradient id="g40" x1="2463.1" y1="1420.3" x2="2911.8" y2="2288" gradientUnits="userSpaceOnUse">
			<stop offset="0" stop-color="#aa80f9"/>
			<stop offset="1" stop-color="#6165d7"/>
		</linearGradient>
		<linearGradient id="g41" x1="2210.8" y1="1577.1" x2="2819" y2="1524.5" gradientUnits="userSpaceOnUse">
			<stop offset="0" stop-color="#aa80f9"/>
			<stop offset="1" stop-color="#6165d7"/>
		</linearGradient>
		<linearGradient id="g42" x1="2177.9" y1="1557.9" x2="2254.5" y2="1374.9" gradientUnits="userSpaceOnUse">
			<stop offset="0" stop-color="#893976"/>
			<stop offset="1" stop-color="#311944"/>
		</linearGradient>
		<linearGradient id="g43" x1="2191.4" y1="1480" x2="2364.3" y2="1319.3" gradientUnits="userSpaceOnUse">
			<stop offset="0" stop-color="#893976"/>
			<stop offset="1" stop-color="#311944"/>
		</linearGradient>
	</defs>
	<style>
		.s0 { fill: #00cdbe } 
		.s1 { fill: url(#g1) } 
		.s2 { fill: #fcfdfe } 
		.s3 { fill: url(#g2) } 
		.s4 { fill: url(#g3) } 
		.s5 { fill: url(#g4) } 
		.s6 { fill: url(#g5) } 
		.s7 { fill: url(#g6) } 
		.s8 { fill: #ffffff } 
		.s9 { opacity: .5;mix-blend-mode: soft-light;fill: #ffffff } 
		.s10 { fill: url(#g7) } 
		.s11 { opacity: .3;mix-blend-mode: multiply;fill: url(#g8) } 
		.s12 { fill: #bfc6d1 } 
		.s13 { fill: #d8dee8 } 
		.s14 { fill: url(#g9) } 
		.s15 { fill: url(#g10) } 
		.s16 { fill: #f4f7fa } 
		.s17 { fill: url(#g11) } 
		.s18 { fill: url(#g12) } 
		.s19 { fill: url(#g13) } 
		.s20 { fill: url(#g14) } 
		.s21 { fill: url(#g15) } 
		.s22 { fill: url(#g16) } 
		.s23 { fill: url(#g17) } 
		.s24 { fill: url(#g18) } 
		.s25 { fill: url(#g19) } 
		.s26 { fill: url(#g20) } 
		.s27 { fill: url(#g21) } 
		.s28 { fill: url(#g22) } 
		.s29 { fill: url(#g23) } 
		.s30 { fill: url(#g24) } 
		.s31 { fill: url(#g25) } 
		.s32 { fill: url(#g26) } 
		.s33 { fill: url(#g27) } 
		.s34 { fill: url(#g28) } 
		.s35 { fill: url(#g29) } 
		.s36 { fill: url(#g30) } 
		.s37 { opacity: .3;mix-blend-mode: multiply;fill: url(#g31) } 
		.s38 { fill: url(#g32) } 
		.s39 { fill: url(#g33) } 
		.s40 { fill: url(#g34) } 
		.s41 { fill: url(#g35) } 
		.s42 { fill: url(#g36) } 
		.s43 { fill: url(#g37) } 
		.s44 { fill: url(#g38) } 
		.s45 { fill: url(#g39) } 
		.s46 { opacity: .3;mix-blend-mode: multiply;fill: url(#g40) } 
		.s47 { fill: url(#g41) } 
		.s48 { fill: url(#g42) } 
		.s49 { fill: url(#g43) } 
	</style>
	<g id="Illustration">
		<g id="&lt;Group&gt;">
			<path id="&lt;Path&gt;" class="s0" d="m3085.3 1111.4c265.3 466.9 220.9 1081.7-76.1 1507.5-635.8 911.6-2220.6 657-2323.6 353.7-45.8-134.7 194.7-296.7 126.3-569.1-31.9-126.8-103.9-170.5-190-282.6-286.3-373-322.1-973.3-126.2-1104.4 132-88.5 304.1 79.9 444.2-22.8 143.9-105.6 30.2-333.1 127.2-473.4 217.6-314.9 1538.7-252.6 2018.2 591.1z"/>
			<g id="&lt;Group&gt;">
				<g id="&lt;Group&gt;">
					<g id="&lt;Group&gt;">
						<g id="&lt;Group&gt;">
							<path id="&lt;Path&gt;" class="s1" d="m906.2 1437.9c-406.7-390.2-527.5-813.9-344.3-987.6 185.7-176 431.9-64.8 559.3 155.6 81.5 141 220.3 13.2 354.2 187.7 117.6 153.2 12.6 457.9-13.6 622.3-55.9 350.3 88 514.8 202.4 677.4l-615 72.3c22.4-58.5 43.8-109.6 54.3-145.8 54.8-189 62.8-268.9-197.3-581.9z"/>
							<g id="&lt;Clip Group&gt;" clip-path="url(#cp1)">
								<g id="&lt;Group&gt;" style="mix-blend-mode: soft-light">
									<g id="&lt;Group&gt;">
										<path id="&lt;Path&gt;" class="s2" d="m1364 2087.6c-16.5-78.9-36.1-152.5-56.8-230.4l-6.9-26c-12.2-36.9-23.3-73.6-34.1-109.1-24.2-80.2-47.1-155.9-82.5-233.3-1.5-4.7-2.7-9.3-4.1-14.2-4.7-17.4-9.6-35.3-24.3-49.8l-0.4-0.7c-155.2-418.1-399.3-811.2-725.4-1168.4l2.7-2.4c326.3 357.4 570.5 750.8 725.9 1169.2 15.2 15.1 20.4 34.3 25 51.2 1.3 4.8 2.6 9.4 4 13.8 35.4 77.4 58.3 153.3 82.6 233.6 10.7 35.5 21.8 72.2 34.1 109.1l6.9 26.1c20.7 78 40.3 151.6 56.8 230.6z"/>
										<path id="&lt;Path&gt;" class="s2" d="m1258.4 1708.3c-57.9-201.9-15.2-471.4 30.8-662 49.8-206.4 114.1-367.2 114.8-368.8l3.3 1.3c-0.6 1.6-64.9 162.2-114.7 368.4-45.9 190.1-88.5 459-30.7 660.1z"/>
										<path id="&lt;Path&gt;" class="s2" d="m886.8 862.9c-73.4-210.7-101.7-449-111-527.2-1.7-15-2.9-24.9-3.5-26.7l3.5-1.1c0.6 2.1 1.5 9.9 3.6 27.3 9.3 78.2 37.5 316.1 110.8 526.5z"/>
										<path id="&lt;Path&gt;" class="s2" d="m1056 1186.2c-122.1-165.9-545.3-228.9-549.6-229.6l0.5-3.5c4.3 0.6 429 63.8 552 230.9z"/>
									</g>
								</g>
							</g>
						</g>
						<g id="&lt;Group&gt;">
							<path id="&lt;Path&gt;" class="s3" d="m918.1 1340.8c36.5 282.1 161.9 173 290.8 186.1 169.7 192.8 206.3 385.9 9.5 579.5l-245.5-7.8c-90 6.4-198.3-8.6-206.4-128.5-9.1-135.6 12.7-225-147.3-273.3-159.9-48.3-239.5-161.5-194.1-306.1 47.9-152.3-127.1-329.3-27.4-439.3 173.9-191.6 482.4 95.5 520.4 389.4z"/>
							<g id="&lt;Clip Group&gt;" clip-path="url(#cp2)">
								<g id="&lt;Group&gt;" style="mix-blend-mode: soft-light">
									<g id="&lt;Group&gt;">
										<path id="&lt;Path&gt;" class="s2" d="m1037.5 1839.4c-113.7-98.4-215.4-210.6-302.2-333.5-87.6-124-159-257.3-212-396.1-30.4-79.6-54.9-161.5-72.8-243.3l3.6-0.8c17.8 81.7 42.3 163.4 72.6 242.8 53 138.5 124.1 271.5 211.6 395.2 86.6 122.7 188.1 234.7 301.6 332.9z"/>
										<path id="&lt;Path&gt;" class="s2" d="m796 2025.1l-2-3.1c42.1-28.1 92.9-52.1 150.9-71.4 27.6-9.2 55.3-16.3 82.3-21.3l0.6 3.6c-26.8 5-54.3 12.1-81.8 21.2-57.7 19.2-108.1 43.1-150 71z"/>
										<path id="&lt;Path&gt;" class="s2" d="m791.7 1581c-138.8-105.9-402.7-63.7-405.3-63.3l-0.6-3.6c2.7-0.4 268.1-42.9 408.1 63.9z"/>
										<path id="&lt;Path&gt;" class="s2" d="m601.1 1284.5c-59.9-187.9 58.1-427 59.3-429.4l3.2 1.6c-1.2 2.4-118.5 240.2-59 426.7z"/>
									</g>
								</g>
							</g>
						</g>
					</g>
				</g>
			</g>
			<g id="&lt;Group&gt;">
				<path id="&lt;Path&gt;" class="s4" d="m3278.7 2922.6c0 17.4-13.4 31.9-30.8 33.2l-1945.9 140.2c-9.6 0.7-19.3 0.3-28.8-1.2l-802.2-123c-16.7-2.5-29.1-16.9-29.1-33.9v-62.5l2836.8 21.2z"/>
				<g id="&lt;Group&gt;">
					<path id="&lt;Path&gt;" class="s5" d="m2249.2 2795.3l-1778 114.3c-31.8 2-57.7-19.7-57.7-48.6v-1155.8c0-28.9 25.9-52.3 57.7-52.3h1778c26.3 0 47.4 21.2 47.4 47.3v1044.8c0 26.1-21.1 48.6-47.4 50.3z"/>
					<path id="&lt;Path&gt;" class="s6" d="m2277.6 2795.3l-1778 114.3c-31.8 2-57.7-19.7-57.7-48.6v-1155.8c0-28.9 25.9-52.3 57.7-52.3h1778c26.2 0 47.4 21.2 47.4 47.3v1044.8c0 26.1-21.2 48.6-47.4 50.3z"/>
					<path id="&lt;Path&gt;" class="s7" d="m2222.2 2721.6l-1656 99.3c-25.9 1.5-47-16.3-47-39.8v-1012c0-23.6 21.1-42.7 47-42.8l1656-6.3c21.6 0 39.1 17.3 39.1 38.7v921.8c0 21.4-17.5 39.8-39.1 41.1z"/>
					<path id="&lt;Path&gt;" class="s8" d="m1451.4 1684.5c0 10.8-9.2 19.5-20.5 19.5-11.3 0.1-20.5-8.6-20.5-19.4 0-10.8 9.2-19.5 20.5-19.5 11.3 0 20.5 8.7 20.5 19.4z"/>
					<path id="&lt;Path&gt;" class="s9" d="m2043.3 2694.5c52.1 41.8 133.6 82.2 266.3 86.6-5.1 6.9-13 11.6-21.9 12.2l-1812.1 116.9c-18.6 1.2-33.7-11.5-33.7-28.5v-1198.1c0-16.9 15.1-30.7 33.7-30.7h106.3c13.5 53.4 39.2 103.5 86 138 108.7 80 231.7 2.8 345.8 86.2 94.1 68.7 39.5 143.2 148.7 239 86.4 75.7 142.3 47.4 228.3 131.6 77.6 75.9 46.6 113.8 109.7 164.7 104 83.8 211.7-1.2 348.8 65.9 109.9 53.8 92.2 134.4 194.1 216.2z"/>
				</g>
				<path id="&lt;Path&gt;" class="s10" d="m2378.8 2790.9l899.9 105.7-1976.7 142.4c-9.6 0.7-19.3 0.3-28.8-1.1l-831.3-127.5 1906.6-120.3c10.1-0.6 20.2-0.3 30.3 0.8z"/>
				<path id="&lt;Path&gt;" class="s11" d="m720.1 2913.4l1587.3-101.6 491.2 57.2-1573.6 108.6z"/>
			</g>
			<g id="&lt;Group&gt;">
				<path id="&lt;Compound Path&gt;" fill-rule="evenodd" class="s12" d="m3080.5 1217.8c-7.3 28.2-16.5 55.6-27.6 81.8 2.3 1.4 4.5 2.9 6.7 4.5 42.7 32 52.9 95.7 22.7 142.3-30.1 46.6-89.1 58.4-131.8 26.4-2.2-1.6-4.3-3.4-6.4-5.3-19.1 20.5-39.7 39.3-61.6 56.4 1.4 2.5 2.6 5 3.8 7.7 21.9 51 1.2 112.1-46.2 136.5-47.5 24.3-103.7 2.8-125.6-48.2-1.1-2.6-2-5.3-2.9-7.9-25.7 7.4-52.2 12.7-79.1 15.7 0 2.9-0.1 5.8-0.3 8.7-4.8 56.4-50.8 98.5-102.8 94.1-52.1-4.4-90.4-53.6-85.6-109.9 0.2-3 0.6-5.8 1.1-8.7q-26.1-7.5-50.9-17.8c-34 41.5-119.8 53.3-160.5 22.9-42.7-32-52.9-95.7-22.7-142.3 1.5-2.4 3.2-4.7 5-6.9-18.7-20.5-35.9-42.5-51.3-65.9-2.4 1.4-4.7 2.9-7.2 4.1-47.4 24.4-103.7 2.8-125.6-48.1-21.9-51-1.2-112.1 46.3-136.5 2.4-1.2 4.8-2.3 7.3-3.3-6.5-27.7-11-56.2-13.5-85.3-2.7 0-5.4 0-8.1-0.2-52-4.4-90.3-53.6-85.6-110 4.8-56.3 50.8-98.4 102.8-94 2.7 0.2 5.4 0.6 8 1.1 7.3-28.3 16.5-55.7 27.6-81.9-2.3-1.4-4.5-2.8-6.7-4.5-42.7-31.9-52.9-95.6-22.7-142.2 30.1-46.6 89.1-58.5 131.8-26.5 2.2 1.7 4.3 3.5 6.4 5.3 19.1-20.5 39.7-39.3 61.6-56.4-1.4-2.5-2.7-5-3.8-7.7-21.9-51-4.5-112.5 104-154.1 49.8-19.1 45.9 14.9 67.8 65.9 1.1 2.6 2 5.2 2.9 7.9 25.7-7.5 52.1-12.7 79.1-15.8 0-2.9 0.1-5.8 0.3-8.7 4.8-56.3 30.8-115.9 151.4-107.6 52 3.5 41.8 67.1 37 123.5-0.2 2.9-0.6 5.7-1.1 8.6 26 7.5 51.2 17.2 75.3 28.8 1.3-2.5 2.7-4.9 4.2-7.3 30.2-46.6 89.2-58.5 131.9-26.5 42.7 31.9 52.9 95.6 22.7 142.2-1.5 2.5-3.2 4.7-5 7 18.7 20.5 35.9 42.5 51.3 65.9 2.4-1.5 4.7-2.9 7.2-4.2 47.4-24.4 103.7-2.8 125.6 48.2 21.9 50.9 1.2 112-46.3 136.4-2.4 1.3-4.9 2.3-7.3 3.3 6.5 27.7 11 56.2 13.5 85.3 2.7 0 5.3 0 8 0.3 52.1 4.3 90.4 53.6 85.7 109.9-4.8 56.3-50.8 98.5-102.8 94.1-2.7-0.2-5.4-0.7-8-1.1zm-681.8 369.9c1.3-1.9-19.5-2.1-26.7-3.4q10.9 5.2 22 9.8 2.6-3.1 4.7-6.4zm-26.7-3.4q-1.2-0.6-2.4-1.2c-0.3 0.5 0.7 0.9 2.4 1.2zm554.8-481.8c17.2-204.5-122-383.2-310.9-399.2-188.9-15.9-356 137.1-373.3 341.6-17.2 204.6 122 383.3 310.9 399.2 188.9 15.9 356-137 373.3-341.6z"/>
				<path id="&lt;Path&gt;" class="s12" d="m3084.1 929.3c6.5 27.7 11 56.2 13.5 85.3 2.7 0 5.3 0 8 0.3 52.1 4.3 90.4 53.6 85.7 109.9-4.8 56.3-50.8 98.5-102.8 94.1-2.7-0.2-5.4-0.7-8-1.1-7.3 28.2-16.5 55.6-27.6 81.8 2.3 1.4 4.5 2.9 6.7 4.5 42.7 32 89.6 89.6 59.5 136.2-30.1 46.6-125.9 64.5-168.6 32.5-2.2-1.6-4.3-3.4-6.4-5.3-19.2 20.5-39.7 39.3-61.6 56.4 1.4 2.5 2.6 5 3.8 7.7 21.9 51 34.6 106.6-13.7 129.3-87.2 41-136.2 10-158.1-41-1.1-2.6-2-5.3-2.9-7.9q-18.8 5.4-38 9.3c3-46.8 6.1-93.6 6.5-140.3 0.1-17.2-0.3-34.4-0.6-51.6 132.2-43 234-169.6 247.3-326.9 15.6-185.5-97.5-349.8-259.6-390.6 10-88.3 21-176.4 32.6-264.5 18.2 20.3 28.4 48.8 25.8 79.5-0.2 2.9-0.6 5.7-1.1 8.6 26 7.5 51.2 17.2 75.3 28.8 1.3-2.5 2.7-4.9 4.2-7.3 30.2-46.6 75.3-102.8 162.2-50.7 45.7 27.4 22.6 119.8-7.6 166.4-1.5 2.5-3.2 4.7-5 7 18.7 20.5 35.9 42.5 51.3 65.9 2.4-1.5 4.7-2.9 7.2-4.2 47.4-24.4 103.7-2.8 125.6 48.2 21.9 50.9 1.2 112-46.3 136.4-2.4 1.3-4.9 2.3-7.3 3.3z"/>
				<path id="&lt;Compound Path&gt;" fill-rule="evenodd" class="s13" d="m3129 1204.2c-7.3 28.3-16.5 55.6-27.6 81.8 2.3 1.4 4.5 2.9 6.7 4.5 42.7 32 52.9 95.7 22.8 142.3-30.1 46.6-89.2 58.4-131.9 26.5-2.2-1.7-4.3-3.5-6.3-5.3-19.2 20.4-39.8 39.3-61.6 56.3 1.3 2.5 2.6 5.1 3.7 7.7 21.9 51 1.2 112.1-46.2 136.5-47.4 24.4-103.6 2.8-125.5-48.2-1.2-2.6-2.1-5.3-3-7.9-25.7 7.4-52.1 12.7-79.1 15.8 0 2.9 0 5.7-0.3 8.7-4.7 56.3-50.8 98.4-102.8 94-52-4.3-90.3-53.6-85.6-109.9 0.2-2.9 0.7-5.8 1.1-8.6-26-7.6-51.2-17.2-75.3-28.8-1.3 2.5-2.7 4.9-4.2 7.3-30.1 46.6-89.2 58.5-131.9 26.5-42.6-32-52.8-95.7-22.7-142.3 1.6-2.4 3.3-4.7 5-6.9-18.7-20.5-35.8-42.5-51.3-65.9-2.3 1.5-4.7 2.9-7.2 4.2-47.4 24.3-103.6 2.8-125.5-48.2-21.9-51-1.2-112.1 46.2-136.4 2.4-1.3 4.9-2.3 7.4-3.4-6.6-27.7-11.1-56.2-13.6-85.3-2.6 0.1-5.3 0-8-0.2-52-4.4-90.4-53.6-85.6-109.9 4.7-56.4 50.7-98.5 102.8-94.1 2.7 0.2 5.3 0.6 7.9 1.1 7.3-28.3 16.6-55.6 27.6-81.8-2.2-1.5-4.5-2.9-6.7-4.5-42.6-32-52.8-95.7-22.7-142.3 30.1-46.6 89.1-58.5 131.8-26.5 2.3 1.7 4.3 3.5 6.4 5.3 19.2-20.4 39.8-39.3 61.6-56.3-1.3-2.5-2.6-5.1-3.8-7.7-21.9-51-1.2-112.1 46.3-136.5 47.4-24.4 103.6-2.8 125.5 48.2 1.1 2.6 2.1 5.3 3 7.9 25.7-7.4 52.1-12.7 79-15.8 0-2.9 0.1-5.7 0.4-8.7 4.7-56.3 50.7-98.4 102.8-94 52 4.3 90.3 53.6 85.6 109.9-0.3 2.9-0.7 5.8-1.2 8.6 26.1 7.6 51.2 17.2 75.3 28.8 1.4-2.5 2.7-4.9 4.3-7.3 30.1-46.6 89.1-58.5 131.8-26.5 42.7 32 52.9 95.7 22.8 142.3-1.6 2.4-3.3 4.7-5 6.9 18.6 20.5 35.8 42.5 51.3 65.9 2.3-1.5 4.7-2.9 7.1-4.2 47.5-24.4 103.7-2.8 125.6 48.2 21.9 51 1.2 112.1-46.2 136.4-2.5 1.3-4.9 2.3-7.4 3.4 6.5 27.7 11.1 56.2 13.6 85.3 2.6-0.1 5.3 0 8 0.2 52 4.4 90.3 53.6 85.6 109.9-4.7 56.4-50.8 98.5-102.8 94.1-2.7-0.2-5.3-0.6-8-1.1zm-153.7-115.2c17.2-204.6-122-383.3-310.9-399.2-188.9-15.9-356 137-373.2 341.5-17.2 204.6 121.9 383.3 310.8 399.2 189 15.9 356.1-137 373.3-341.5z"/>
			</g>
			<g id="&lt;Group&gt;">
				<g id="&lt;Group&gt;">
					<path id="&lt;Path&gt;" class="s8" d="m3053.8 997.4v458.9c0 15.2-9.9 27.8-22.2 28.1l-796.3 19.5c-13.5 0.3-24.4-12.4-24.4-28.4v-482z"/>
					<path id="&lt;Path&gt;" class="s14" d="m3053.8 966.7v47l-842.9-3v-49.4c0-16 10.9-28.9 24.4-28.8l796.3 6.4c12.3 0.1 22.2 12.6 22.2 27.8z"/>
					<g id="&lt;Group&gt;">
						<g id="&lt;Group&gt;">
							<g id="&lt;Group&gt;">
								<path id="&lt;Path&gt;" class="s15" d="m2409.8 1248l44.5-186.6c67.1 26 115.4 101.2 115.8 190.2z"/>
							</g>
							<g id="&lt;Group&gt;">
								<path id="&lt;Path&gt;" class="s16" d="m2528.8 1263.8c-2.5 42.4-19.4 80.3-44.9 106.4l-69.8-109.1z"/>
								<path id="&lt;Path&gt;" class="s16" d="m2399.8 1241.7c-27-30.8-59.7-68.1-85.7-97.9 23.1-26.3 54.2-42.5 88.4-42.5 10.3 0 20.4 1.4 30 4.2z"/>
								<path id="&lt;Path&gt;" class="s16" d="m2394.2 1253.4l-98.3 87.6c-13.9-24.3-21.9-53.7-21.9-85.4 0-39.2 12.2-75 32.4-102.3q10.8 12.4 24 27.5c26.6 30.3 53.3 60.7 63.8 72.6z"/>
								<path id="&lt;Path&gt;" class="s16" d="m2397 1267.2l-1.9 139.9c-37.3-1.9-70.5-23-92.7-55.6z"/>
								<path id="&lt;Path&gt;" class="s16" d="m2407.9 1273l67.4 105.3c-19.7 16.9-43.5 27.4-69.2 28.7z"/>
							</g>
						</g>
						<path id="&lt;Path&gt;" class="s13" d="m2996.2 1146.6l-403.6 1.8v-47.1l403.6-0.6z"/>
						<path id="&lt;Path&gt;" class="s13" d="m2996.2 1229.8l-403.6 3.7v-47l403.6-2.7z"/>
						<path id="&lt;Path&gt;" class="s13" d="m2996.2 1312.9l-403.6 5.7v-47l403.6-4.6z"/>
						<path id="&lt;Path&gt;" class="s13" d="m2996.2 1396l-403.6 7.8v-47.1l403.6-6.6z"/>
					</g>
					<path id="&lt;Path&gt;" class="s8" d="m2266.8 971.3c0 7.1-4.8 12.8-10.8 12.8-5.9-0.1-10.8-5.8-10.8-12.9 0-7.2 4.9-12.9 10.8-12.8 6 0 10.8 5.8 10.8 12.9z"/>
				</g>
				<g id="&lt;Group&gt;">
					<path id="&lt;Path&gt;" class="s8" d="m2410.7 2010.2v552.6c0 18.3-12.2 33.9-27.1 34.8l-979.9 58.8c-16.7 1-30.2-13.9-30.2-33.3v-584.3z"/>
					<path id="&lt;Path&gt;" class="s17" d="m2410.7 1973.3v56.6l-1037.2 29.8v-59.9c0-19.4 13.5-35.4 30.2-35.8l979.9-23.3c14.9-0.4 27.1 14.2 27.1 32.6z"/>
					<path id="&lt;Path&gt;" class="s16" d="m2305.2 2502.1l-815.3 44.4v-398.4l815.3-27.3z"/>
					<path id="&lt;Path&gt;" class="s18" d="m2305.2 2502.1l-815.3 44.4v-256.1c26.7 172.8 55.1 209.9 76.6 210.7 30.1 1 46.3-70 91.8-74 45.2-4.1 60.4 63.2 94.2 59.2 64.2-7.8 81.7-260.3 133.7-264.1 41.3-3 69.2 153.7 105.6 145.8 26.6-5.7 33-94.1 53.1-94.1 18.2 0.1 19 72.7 43 78.4 35.1 8.3 69.3-139.4 117.7-142.3 26.8-1.6 60.1 41.1 99.6 189.3 0 81.7 0 21.1 0 102.8z"/>
					<path id="&lt;Path&gt;" class="s8" d="m1443.7 2008.4c0 8.6-6 15.7-13.4 15.9-7.4 0.2-13.4-6.6-13.4-15.2 0-8.6 6-15.7 13.4-15.9 7.4-0.2 13.4 6.6 13.4 15.2z"/>
				</g>
				<g id="&lt;Group&gt;">
					<g id="&lt;Group&gt;">
						<path id="&lt;Path&gt;" class="s8" d="m2070.3 1004.4v774c0 25.7-17.3 46.9-38.7 47.2l-1431.1 24.5c-24.9 0.4-45.1-21.8-45.1-49.6v-837.7z"/>
						<path id="&lt;Path&gt;" class="s19" d="m2070.3 952.6v79.4l-1514.9-39.3v-85.8c0-27.9 20.2-49.7 45.1-48.9l1431.1 46.8c21.4 0.7 38.7 22.1 38.7 47.8z"/>
						<path id="&lt;Path&gt;" class="s8" d="m658.8 926.7c0 12.3-8.9 22-19.9 21.7-11.1-0.3-20-10.5-20-22.9 0-12.3 8.9-22 20-21.7 11 0.4 19.9 10.6 19.9 22.9z"/>
					</g>
					<g id="&lt;Group&gt;">
						<path id="&lt;Path&gt;" class="s16" d="m864.8 1737.2l-112.8 1.3v-622.5l112.8 2.3z"/>
						<path id="&lt;Path&gt;" class="s20" d="m864.8 1737.2l-112.8 1.3v-295.5l112.8 0.3z"/>
						<path id="&lt;Path&gt;" class="s16" d="m1019.5 1735.4l-110.9 1.3v-617.6l110.9 2.2z"/>
						<path id="&lt;Path&gt;" class="s21" d="m1019.5 1735.4l-110.9 1.3v-146.6l110.9-0.5z"/>
						<path id="&lt;Path&gt;" class="s16" d="m1171.9 1733.6l-109.3 1.3v-612.7l109.3 2.2z"/>
						<path id="&lt;Path&gt;" class="s22" d="m1171.9 1733.6l-109.3 1.3v-76.4l109.3-0.8z"/>
						<path id="&lt;Path&gt;" class="s16" d="m1321.8 1731.9l-107.5 1.3v-608l107.5 2.2z"/>
						<path id="&lt;Path&gt;" class="s23" d="m1321.8 1731.9l-107.5 1.3v-476.3l107.5 1.4z"/>
						<path id="&lt;Path&gt;" class="s16" d="m1469.5 1730.2l-105.9 1.2v-603.2l105.9 2.1z"/>
						<path id="&lt;Path&gt;" class="s24" d="m1469.5 1730.2l-105.9 1.2v-418.8l105.9 1.1z"/>
						<path id="&lt;Path&gt;" class="s16" d="m1614.9 1728.5l-104.3 1.2v-598.6l104.3 2.1z"/>
						<path id="&lt;Path&gt;" class="s25" d="m1614.9 1728.5l-104.3 1.2v-511.5l104.3 1.6z"/>
						<path id="&lt;Path&gt;" class="s16" d="m1758.1 1726.9l-102.7 1.2v-594.1l102.7 2.1z"/>
						<path id="&lt;Path&gt;" class="s26" d="m1758.1 1726.9l-102.7 1.2v-364.9l102.7 0.8z"/>
						<path id="&lt;Path&gt;" class="s16" d="m1899.1 1725.2l-101.1 1.2v-589.5l101.1 2z"/>
						<path id="&lt;Path&gt;" class="s27" d="m1899.1 1725.2l-101.1 1.2v-204.7h101.1z"/>
					</g>
				</g>
				<g id="&lt;Group&gt;">
					<g id="&lt;Group&gt;">
						<path id="&lt;Path&gt;" class="s8" d="m1317.3 2084.1v464.1c0 15.4-9.6 28.4-21.5 29.1l-772.4 43.2c-13 0.7-23.6-11.8-23.6-27.9v-486.3z"/>
						<path id="&lt;Path&gt;" class="s28" d="m1317.3 2053v47.6l-817.5 23v-49.8c0-16.2 10.6-29.5 23.6-29.8l772.4-18.4c11.9-0.2 21.5 12 21.5 27.4z"/>
						<path id="&lt;Path&gt;" class="s8" d="m554.7 2081c0 7.2-4.7 13.1-10.5 13.3-5.8 0.1-10.5-5.6-10.5-12.7 0-7.2 4.7-13.1 10.5-13.3 5.8-0.1 10.5 5.6 10.5 12.7z"/>
					</g>
					<g id="&lt;Group&gt;">
						<path id="&lt;Path&gt;" class="s29" d="m561.1 2312.7c17.2-49.5 55.6-85.4 100.5-89.1l-1.1 83.2c-15.8 2.9-29.2 15.4-36.4 32.4z"/>
						<path id="&lt;Path&gt;" class="s13" d="m674.2 2223.4c58.2 3.2 104 61.6 104.8 135.1l-65.9-0.7c-2-27-18.6-48.1-40-51.3z"/>
						<path id="&lt;Path&gt;" class="s13" d="m778.5 2374.1c-5.4 71.8-53.6 130.1-112.5 133.1-19.6 1-38.2-4.4-54.4-14.6l35.1-72.5c5.9 3.1 12.5 4.6 19.3 4.3 23.4-1.1 42.7-23 46.6-50.8z"/>
						<path id="&lt;Path&gt;" class="s13" d="m551.6 2370.1c0-14.7 1.8-28.9 5.1-42.3l63 26.4c-0.8 4.2-1.2 8.6-1.2 13.1 0 18.4 6.8 34.6 17.4 45l-35.1 72.5c-29.7-24.3-49.2-66.2-49.2-114.7z"/>
					</g>
					<g id="&lt;Group&gt;">
						<path id="&lt;Path&gt;" class="s13" d="m808.2 2303.2c16.7-48.9 54-84.3 97.7-87.9l-1.1 82c-15.3 2.9-28.4 15.2-35.4 32z"/>
						<path id="&lt;Path&gt;" class="s30" d="m918.2 2215.1c56.6 3.2 101.1 60.8 101.9 133.3l-64.1-0.7c-1.9-26.6-18.1-47.5-38.9-50.6z"/>
						<path id="&lt;Path&gt;" class="s13" d="m1019.6 2363.8c-5.3 70.8-52.1 128.3-109.4 131.2-19.1 0.9-37.2-4.3-53-14.4l34.2-71.5c5.8 3 12.1 4.5 18.8 4.2 22.7-1 41.5-22.6 45.3-50.1z"/>
						<path id="&lt;Path&gt;" class="s13" d="m798.9 2359.7c0-14.5 1.8-28.5 5-41.7l61.2 26.1c-0.7 4.2-1.1 8.5-1.1 12.9 0 18.2 6.6 34.1 16.9 44.4l-34.2 71.5c-28.8-24-47.8-65.4-47.8-113.2z"/>
					</g>
					<g id="&lt;Group&gt;">
						<path id="&lt;Path&gt;" class="s13" d="m1048.5 2293.8c16.2-48.1 52.6-83 95.1-86.6l-1 80.9c-15 2.8-27.7 15-34.5 31.6z"/>
						<path id="&lt;Path&gt;" class="s13" d="m1155.6 2207.1c55 3.1 98.4 59.9 99.2 131.4l-62.5-0.7c-1.8-26.2-17.6-46.8-37.8-49.9z"/>
						<path id="&lt;Path&gt;" class="s13" d="m1254.3 2353.8c-5.2 69.8-50.7 126.5-106.5 129.3-18.6 0.9-36.2-4.3-51.5-14.2l33.2-70.5c5.6 3 11.8 4.5 18.3 4.2 22.1-1 40.4-22.3 44.1-49.4z"/>
						<path id="&lt;Path&gt;" class="s31" d="m1039.5 2349.6c0-14.3 1.7-28.1 4.8-41.1l59.6 25.7c-0.7 4.1-1.1 8.4-1.1 12.7 0 18 6.5 33.8 16.5 43.9l-33.3 70.5c-28.1-23.7-46.5-64.5-46.5-111.7z"/>
					</g>
				</g>
			</g>
			<g id="&lt;Group&gt;">
				<path id="&lt;Path&gt;" class="s32" d="m2341.7 2871.5c0 0 6.8 23.1 8.6 32.3 1.7 9.2-14.2 15.6-33.6 14.8-19.4-0.9-67 6.9-65.8 1.1 1.2-5.9 73.3-42.5 73.3-42.5z"/>
				<path id="&lt;Path&gt;" class="s33" d="m2348.3 2843.1l-3.3 39.8c-7.7 5.4-19.1 0.9-19.1 0.9l-4.4-36.3z"/>
				<path id="&lt;Path&gt;" class="s34" d="m2661 2848.3l8.4 15.1c2.3 4.2 3 9.3 1.9 14.1-2.9 12.5-8.8 36.9-11.3 43.2-3.5 8.7-50.1 13.8-50.1 13.8 0 0-4.2-6.5 5.5-14.4 9.7-7.9 15.9-9.2 19.3-20.8 3.4-11.7 5.7-44.7 5.7-44.7z"/>
				<path id="&lt;Path&gt;" class="s35" d="m2660.7 2805.8l1.7 50c0 0 5-5.7-4.2 4.6-9.2 10.2-14 3.3-14 3.3 0 0-15-50.9-18.1-53.6z"/>
				<path id="&lt;Path&gt;" class="s36" d="m2442.7 2081.4c6.5 6.7 20 25.3 1.9 149.3-16.6 114.2-30.8 117.4-40.8 197.8-11.3 90.9 5 101.6-8.9 224.2-3.9 34.8-9.5 71.2-18.6 111.8-8.8 38.6-18.5 71-26.7 95.5q-6.2 0.5-12.8 0.7c-6.4 0.2-12.6 0.2-18.6 0-15.8-118.6-28.4-249.3-34.7-390.8-5.6-125.6-5.4-243.2-1.6-351.5 67.5-46.1 132.9-65.6 160.8-37z"/>
				<path id="&lt;Path&gt;" class="s37" d="m2444.6 2230.7c-16.6 114.2-30.8 117.4-40.8 197.8-11.3 90.9 5 101.6-8.9 224.2-3.9 34.8-9.5 71.2-18.6 111.8-8.8 38.6-18.5 71-26.7 95.5q-6.2 0.5-12.8 0.7c-6.4 0.2-12.6 0.2-18.6 0-2.3-17.2-4.5-34.7-6.6-52.5 29.9-24.9 40.4-49.2 44.1-67.7 8.5-43.2-17.9-63.2-12.2-121.5 4.7-49.3 25-48.9 25.6-88.8 1-60.3-45-75.4-45.2-132.4-0.1-46.4 30.3-58.6 40.3-101 8.9-37.5 0.8-95.4-73-184.5 64.2-41.7 124.9-58.2 151.5-30.9 6.5 6.7 20 25.3 1.9 149.3z"/>
				<path id="&lt;Path&gt;" class="s38" d="m2510.7 2056.5c25.9 63.6 41.5 116.8 50.9 152.5 22.7 87 17 104.3 40.7 173.8 22.9 67 35 70.5 52.5 133.8 15.7 56.5 19.5 102.2 21.7 129.7 3.4 42.9 4.5 102.4-5.5 172.6-2.1 2.8-10.4 12.6-24.1 14.6-10.1 1.5-17.9-2-21.3-3.7-24.6-98-58.2-207.9-104.6-324.9-61.3-154.9-129.8-284.3-193.4-388.3q91.6-30 183.1-60.1z"/>
				<path id="&lt;Path&gt;" class="s39" d="m2310.7 1664.8c-70.2-45.8-100.3-40.5-120.6-81.7-20.1-40.7-20.1-105.3 13.2-139.6 2.5-2.5 27.8-27.7 62.1-23.4 52 6.5 55.8 72.1 114 102.2 49.4 25.4 103.2 7.5 139.6-4.6 87.7-29.2 100.7-84.4 146.2-75.6 56.9 11 62 102.7 118.7 108.3 38 3.8 47-36 96.9-47 58.6-12.9 122.9 25.2 159 71.5 65.9 84.6 48.5 211 7.3 288.1-33.9 63.3-106.8 136.2-168.1 120.5-48.5-12.4-64.3-73.5-106-67.4-29.7 4.3-30.7 36.5-65.8 53.1-57.6 27.3-128.6-24.6-148-38.8-55.3-40.3-46.5-66.1-117.7-147-28.1-32-68.7-78-130.8-118.6z"/>
				<path id="&lt;Path&gt;" class="s40" d="m1804.5 1512.9c0 0-6.8-10.5-13.4-20.2-6.6-9.7-19.5-1.4-26.9-13.5-7.5-12 2.8-17.7 6.5-24 3.7-6.4-12.3-21.5-19.8-30.3-7.6-8.8-4.9-14.3-4.9-14.3 0 0 35.1 34.7 42.6 47 7.6 12.3 19.4 28.9 19.4 28.9z"/>
				<path id="&lt;Path&gt;" class="s41" d="m1961.2 1606.6c46.1 15.8 87 13.1 102.7 11.8 47.9-3.7 85.2-19.5 107.9-31.4 11.2 21.4 72.1 140.2 34.4 193.8-42.3 60-186.7 7.4-266-49.1-58.2-41.4-92.6-93-103.7-110.6-25.2-39.8-39.5-77.6-47.8-104.8q12-20.3 24-40.6c15.9 27.7 63.3 101.6 148.5 130.9z"/>
				<path id="&lt;Path&gt;" class="s42" d="m2253 1566c11.9-1.2 152.7-13 189 66.5 11.2 24.5 3.5 38 3.7 83.8 0.5 111.2 46.9 196 72.2 242.1 36.4 66.7 69.3 126.7 132.4 144 38.6 10.6 73.2 1.1 94.1-7.1 52.7 0 86.2 38.7 84.1 69.5-1.7 24.7-26.9 48.8-51.2 51-24.2 2.3-31-18.6-56.6-24.5-41-9.4-58.8 36-111.5 53.1-57.7 18.7-69.2-25.1-149.8-20.4-70.6 4.1-78.4 38.7-143.5 35.8-19-0.9-89.4-4.1-118.7-54.2-22.6-38.5 3.8-62.5 3.6-181.8-0.1-83.9-0.2-125.8-20.1-168.6-13.5-29.2-31.2-50.3-30.6-87.4 0.7-33.1 15.3-45.5 8.4-65.1-12.9-36.3-75.2-25.6-79.2-45.6-4.8-24.2 77.8-81.9 173.7-91.1z"/>
				<g id="&lt;Group&gt;">
					<path id="&lt;Path&gt;" class="s43" d="m2047.9 1757.2l176.8 7.7c1.9 0.1 3.6 1.5 4.3 3.5l83.3 258.4c1.2 3.8-2.5 13-6 12.6l-174.9-26.6c-1.8-0.2-3.3-1.5-3.9-3.4l-86.7-241.2c-1.2-3.5 3.6-11.1 7.1-11z"/>
					<path id="&lt;Path&gt;" class="s8" d="m2045.1 1763.5l176.9 7.7c1.9 0.1 3.6 1.5 4.3 3.6l83.3 258.4c1.2 3.7-1.5 7.5-5 7.1l-175.9-21.2c-1.8-0.2-3.3-1.5-4-3.4l-84.2-244.9c-1.3-3.6 1.2-7.4 4.6-7.3z"/>
					<path id="&lt;Path&gt;" class="s44" d="m2093.5 1773.2l-6.8-20.6c-0.7-1.9 0.6-3.9 2.3-3.9h64.4c1.1 0 2.1 0.8 2.4 2l6.5 22.8c0.6 1.9-0.7 3.8-2.5 3.7l-64-2.2c-1.1 0-2-0.8-2.3-1.8z"/>
					<path id="&lt;Path&gt;" class="s16" d="m2235.6 2032l-106.9-12.9c-1.8-0.2-3.3-1.5-4-3.4l-84.2-244.9c-1.3-3.6 1.2-7.4 4.6-7.3l40.6 1.8c-6.7 23.2-4.3 38 0.6 48 18.2 36.9 76.9 17.5 104.2 63.3 19.3 32.4 0.3 59.5 11.8 101.1 4.7 17 14.2 35.7 33.3 54.3z"/>
				</g>
				<path id="&lt;Path&gt;" class="s45" d="m2323 1967.6c0 0-16.9-11.3-21.1-11-4.3 0.3-27.2-0.2-37.2-6.4-10-6.1-23.1-21.6-30.2-23.6-7-2 8.3-10.6 23.5-11.3 15.2-0.6 26.1 11 36.4 18.3 10.4 7.2 37.1 13.2 37.1 13.2z"/>
				<path id="&lt;Path&gt;" class="s46" d="m2828.5 2164.8c-1.7 24.7-26.9 48.8-51.2 51-24.2 2.3-31-18.6-56.6-24.5-41-9.4-58.8 36-111.5 53.1-57.7 18.7-69.2-25.1-149.8-20.4-70.6 4.1-78.4 38.7-143.5 35.8-19-0.9-89.4-4.1-118.7-54.2-9.9-16.9-10.4-31-7.8-51.6 11.9 12.8 110.2-59.8 131.1-51 68.9 28.7 67.1 76.9 67.2 53.6 0-19.7-56.9-17-67.2-53.6-11.9-42.3 56-73.2 53.5-136.4-2.2-52.7-51.1-73.2-41.2-107.3 9.3-31.6 53.4-21.4 71.3-58.2 18.7-38.5-17.2-74.9-9.6-119.5 3.1-18.3 13.8-39.2 41.4-60 2.3 3.4 4.3 7 6.1 10.9 11.2 24.5 3.5 38 3.7 83.8 0.5 111.2 46.9 196 72.2 242.1 36.4 66.7 69.3 126.7 132.4 144 38.6 10.6 73.2 1.1 94.1-7.1 52.7 0 86.2 38.7 84.1 69.5z"/>
				<path id="&lt;Path&gt;" class="s47" d="m2479.8 1880.6c3.9-7.9 12.8-25.7 8.5-45.4-9.2-42.5-66.3-34.7-110.2-81.6-45.9-48.9 3.7-150.9-35.4-175.7-6.4-4-15.5-6.6-15.1-8.7 0.8-4.2 40.2 1.8 65.3 6.6 29.6 5.8 61 11.9 87.5 24.1 69.3 31.7 118.2 110.6 135.4 185.9 7 30.4 17.8 77.2-1.4 127.5-17.4 45.7-49.7 69-61.8 77.8-98.3 71-233.8-0.7-246.5-7.7q12.4-24.5 24.7-49c67.8 10.1 127-9.6 149-53.8z"/>
				<path id="&lt;Path&gt;" class="s48" d="m2238.8 1492.6c0 0 15.9 51.8 35.7 59.8 19.9 8.1 51.2 17.3 55.1 20.9 4 3.6-105.3 43.2-166.5 25 17.4-8.6 22.1-11.3 22.1-11.3 4.6-2.7 13.3-7.8 21.5-15.9 5.5-5.5 14.2-15.7 20.8-32.7l-5.7-29.4z"/>
				<path id="&lt;Path&gt;" class="s49" d="m2245.9 1515.2c0 0-9.2 22.9-31.1 19.4-19.5-3.1-18.6-58.2-5.2-67.6 4.4-3.1 13.4-4.3 20.1-1.6 4.7 1.9 18.7 14.7 15.6 33.5 4.3-2.6 8.6-2.2 10.1 0.1 1.9 3-1.2 8.3-1.9 9.5-2.4 4.2-5.9 6-7.6 6.7z"/>
			</g>
		</g>
	</g>
</svg>