<svg version="1.2" xmlns="http://www.w3.org/2000/svg" viewBox="0 0 1920 1000" width="1920" height="1000">
	<title>hero-area-svg</title>
	<defs>
		<clipPath clipPathUnits="userSpaceOnUse" id="cp1">
			<path d="m-82.2 543.8h2002.3v472.9h-2002.3z"/>
		</clipPath>
		<linearGradient id="g1" x1="570.2" y1="776.6" x2="1963.3" y2="776.6" gradientUnits="userSpaceOnUse">
			<stop offset="0" stop-color="#04c1cb"/>
			<stop offset="1" stop-color="#b7dee0"/>
		</linearGradient>
		<clipPath clipPathUnits="userSpaceOnUse" id="cp2">
			<path d="m-82.2 543.8h2002.3v472.9h-2002.3z"/>
		</clipPath>
		<linearGradient id="g2" x1="87.3" y1="895.4" x2="2035.3" y2="895.4" gradientUnits="userSpaceOnUse">
			<stop offset="0" stop-color="#04c1cb"/>
			<stop offset="1" stop-color="#ceeff1"/>
		</linearGradient>
	</defs>
	<style>
		.s0 { fill: url(#g1) } 
		.s1 { fill: url(#g2) } 
	</style>
	<g id="Clip-Path" clip-path="url(#cp1)">
		<path id="Layer" class="s0" d="m570.2 871.9c129.2-102.3 299.6-137 464.1-145.7 164.6-8.7 330.3 5.4 494-13.8 126.6-14.8 250.8-49.6 366.6-102.6 16.8-7.7 37.2-15.6 52.8-5.6 17 10.9 16.7 35.5 14.3 55.6-8 68.4-19.7 144-73.3 187.2-32.6 26.2-75.2 35.6-116.3 43.5-284.4 54.4-575.4 73.9-864.6 57.9-116.1-6.6-235.8-19.9-337.6-76.5z"/>
	</g>
	<g id="Clip-Path" clip-path="url(#cp2)">
		<path id="Layer" class="s1" d="m1245.5 845.7c212.2-21.9 411.9-126 625.1-129.2 37.4-0.6 77.2 2.8 107.4 25 48.3 35.5 54.7 103.9 56.8 163.8 1.5 42.5 1.2 90-28.1 120.9-28.6 30.1-74.7 33.6-116.2 34.3-309.3 5.4-618.3-33.3-927.5-24.6-287.6 8.1-599.8 81.8-875.7 0.4 74.7-111.5 223.2-200.7 355.7-222.8 132.5-22.1 268-7.2 401.2 9.9 133.2 17 267.7 36.1 401.3 22.3z"/>
	</g>
</svg>