<svg version="1.2" xmlns="http://www.w3.org/2000/svg" viewBox="0 0 2000 1600" width="2000" height="1600">
	<title>8616-ai</title>
	<defs>
		<linearGradient id="g1" x1="349.1" y1="432.7" x2="534.2" y2="432.7" gradientUnits="userSpaceOnUse">
			<stop offset="0" stop-color="#c9cd55"/>
			<stop offset=".5" stop-color="#659c52"/>
			<stop offset="1" stop-color="#287f50"/>
		</linearGradient>
		<linearGradient id="g2" x1="279.6" y1="551.7" x2="553" y2="551.7" gradientUnits="userSpaceOnUse">
			<stop offset="0" stop-color="#fb9a2b"/>
			<stop offset="1" stop-color="#e65925"/>
		</linearGradient>
		<linearGradient id="g3" x1="361.9" y1="616.1" x2="557.9" y2="616.1" gradientUnits="userSpaceOnUse">
			<stop offset="0" stop-color="#c9cd55"/>
			<stop offset=".5" stop-color="#659c52"/>
			<stop offset="1" stop-color="#287f50"/>
		</linearGradient>
		<linearGradient id="g4" x1="1352" y1="1015.3" x2="1346.5" y2="883.3" gradientUnits="userSpaceOnUse">
			<stop offset="0" stop-color="#53cd9f"/>
			<stop offset="1" stop-color="#0d7a5c"/>
		</linearGradient>
		<linearGradient id="g5" x1="483.5" y1="281.3" x2="831.4" y2="281.3" gradientUnits="userSpaceOnUse">
			<stop offset="0" stop-color="#c7a44f"/>
			<stop offset="1" stop-color="#609a3f"/>
		</linearGradient>
		<linearGradient id="g6" x1="222.3" y1="741.9" x2="571.3" y2="741.9" gradientUnits="userSpaceOnUse">
			<stop offset="0" stop-color="#00503e"/>
			<stop offset="1" stop-color="#023222"/>
		</linearGradient>
		<linearGradient id="g7" x1="78.6" y1="1155.1" x2="502.6" y2="1155.1" gradientUnits="userSpaceOnUse">
			<stop offset="0" stop-color="#c7a44f"/>
			<stop offset="1" stop-color="#609a3f"/>
		</linearGradient>
		<linearGradient id="g8" x1="-17" y1="1488.1" x2="86.1" y2="1378.1" gradientUnits="userSpaceOnUse">
			<stop offset="0" stop-color="#53cd9f"/>
			<stop offset="1" stop-color="#0d7a5c"/>
		</linearGradient>
		<linearGradient id="g9" x1="314" y1="1256.9" x2="548" y2="1569.2" gradientUnits="userSpaceOnUse">
			<stop offset="0" stop-color="#53cd9f"/>
			<stop offset="1" stop-color="#0d7a5c"/>
		</linearGradient>
		<linearGradient id="g10" x1="998.1" y1="404.5" x2="1471.3" y2="404.5" gradientUnits="userSpaceOnUse">
			<stop offset="0" stop-color="#53cd9f"/>
			<stop offset="1" stop-color="#0d7a5c"/>
		</linearGradient>
		<linearGradient id="g11" x1="986.7" y1="220.4" x2="1399" y2="220.4" gradientUnits="userSpaceOnUse">
			<stop offset="0" stop-color="#53cd9f"/>
			<stop offset="1" stop-color="#0d7a5c"/>
		</linearGradient>
		<linearGradient id="g12" x1="1087" y1="546.8" x2="1438" y2="546.8" gradientUnits="userSpaceOnUse">
			<stop offset="0" stop-color="#53cd9f"/>
			<stop offset="1" stop-color="#0d7a5c"/>
		</linearGradient>
		<linearGradient id="g13" x1="852.9" y1="536.3" x2="1045.1" y2="536.3" gradientUnits="userSpaceOnUse">
			<stop offset="0" stop-color="#53cd9f"/>
			<stop offset="1" stop-color="#0d7a5c"/>
		</linearGradient>
		<linearGradient id="g14" x1="1438" y1="548" x2="787.7" y2="935" gradientUnits="userSpaceOnUse">
			<stop offset="0" stop-color="#fb9a2b"/>
			<stop offset="1" stop-color="#e65925"/>
		</linearGradient>
		<linearGradient id="g15" x1="1372.9" y1="489.5" x2="722.6" y2="876.5" gradientUnits="userSpaceOnUse">
			<stop offset="0" stop-color="#fb9a2b"/>
			<stop offset="1" stop-color="#e65925"/>
		</linearGradient>
		<linearGradient id="g16" x1="1422.2" y1="564.1" x2="771.9" y2="951.1" gradientUnits="userSpaceOnUse">
			<stop offset="0" stop-color="#fb9a2b"/>
			<stop offset="1" stop-color="#e65925"/>
		</linearGradient>
		<linearGradient id="g17" x1="1633" y1="778.2" x2="1603.6" y2="1428.5" gradientUnits="userSpaceOnUse">
			<stop offset="0" stop-color="#c9cd55"/>
			<stop offset=".5" stop-color="#659c52"/>
			<stop offset="1" stop-color="#287f50"/>
		</linearGradient>
		<linearGradient id="g18" x1="1633" y1="778.2" x2="1603.6" y2="1428.5" gradientUnits="userSpaceOnUse">
			<stop offset="0" stop-color="#c9cd55"/>
			<stop offset=".5" stop-color="#659c52"/>
			<stop offset="1" stop-color="#287f50"/>
		</linearGradient>
		<linearGradient id="g19" x1="1713.8" y1="965.4" x2="2108.6" y2="857.7" gradientUnits="userSpaceOnUse">
			<stop offset="0" stop-color="#53cd9f"/>
			<stop offset="1" stop-color="#0d7a5c"/>
		</linearGradient>
		<linearGradient id="g20" x1="2208" y1="703.2" x2="1906.8" y2="982.4" gradientUnits="userSpaceOnUse">
			<stop offset="0" stop-color="#53cd9f"/>
			<stop offset="1" stop-color="#0d7a5c"/>
		</linearGradient>
		<linearGradient id="g21" x1="1746.8" y1="1091.5" x2="2203.8" y2="966.8" gradientUnits="userSpaceOnUse">
			<stop offset="0" stop-color="#53cd9f"/>
			<stop offset="1" stop-color="#0d7a5c"/>
		</linearGradient>
		<linearGradient id="g22" x1="2367.6" y1="891.9" x2="2077.3" y2="1161.1" gradientUnits="userSpaceOnUse">
			<stop offset="0" stop-color="#53cd9f"/>
			<stop offset="1" stop-color="#0d7a5c"/>
		</linearGradient>
		<linearGradient id="g23" x1="1545.9" y1="1200.7" x2="1996.6" y2="1200.7" gradientUnits="userSpaceOnUse">
			<stop offset="0" stop-color="#00503e"/>
			<stop offset="1" stop-color="#023222"/>
		</linearGradient>
		<linearGradient id="g24" x1="1808.5" y1="1317.1" x2="2268.9" y2="1191.4" gradientUnits="userSpaceOnUse">
			<stop offset="0" stop-color="#53cd9f"/>
			<stop offset="1" stop-color="#0d7a5c"/>
		</linearGradient>
		<linearGradient id="g25" x1="2420.1" y1="1039.7" x2="2162" y2="1279.1" gradientUnits="userSpaceOnUse">
			<stop offset="0" stop-color="#53cd9f"/>
			<stop offset="1" stop-color="#0d7a5c"/>
		</linearGradient>
		<linearGradient id="g26" x1="1398.6" y1="699.4" x2="1536.5" y2="699.4" gradientUnits="userSpaceOnUse">
			<stop offset="0" stop-color="#fb9a2b"/>
			<stop offset="1" stop-color="#e65925"/>
		</linearGradient>
		<linearGradient id="g27" x1="1648.9" y1="647.8" x2="1580.1" y2="856" gradientUnits="userSpaceOnUse">
			<stop offset="0" stop-color="#53cd9f"/>
			<stop offset="1" stop-color="#0d7a5c"/>
		</linearGradient>
		<linearGradient id="g28" x1="1589.4" y1="1680.9" x2="1356" y2="1345.2" gradientUnits="userSpaceOnUse">
			<stop offset="0" stop-color="#c9cd55"/>
			<stop offset=".5" stop-color="#659c52"/>
			<stop offset="1" stop-color="#287f50"/>
		</linearGradient>
		<linearGradient id="g29" x1="1527.2" y1="1300.1" x2="1811.3" y2="1347.9" gradientUnits="userSpaceOnUse">
			<stop offset="0" stop-color="#c9cd55"/>
			<stop offset=".5" stop-color="#659c52"/>
			<stop offset="1" stop-color="#287f50"/>
		</linearGradient>
		<linearGradient id="g30" x1="1491.3" y1="1219.3" x2="1677.9" y2="1219.3" gradientUnits="userSpaceOnUse">
			<stop offset="0" stop-color="#00503e"/>
			<stop offset="1" stop-color="#023222"/>
		</linearGradient>
		<linearGradient id="g31" x1="1481" y1="1195.8" x2="1669.5" y2="1468.7" gradientUnits="userSpaceOnUse">
			<stop offset="0" stop-color="#53cd9f"/>
			<stop offset="1" stop-color="#0d7a5c"/>
		</linearGradient>
		<linearGradient id="g32" x1="1286.4" y1="1232" x2="1516.3" y2="1232" gradientUnits="userSpaceOnUse">
			<stop offset="0" stop-color="#53cd9f"/>
			<stop offset="1" stop-color="#0d7a5c"/>
		</linearGradient>
		<linearGradient id="g33" x1="1277.4" y1="1101.5" x2="1524.7" y2="1101.5" gradientUnits="userSpaceOnUse">
			<stop offset="0" stop-color="#fb9a2b"/>
			<stop offset="1" stop-color="#e65925"/>
		</linearGradient>
		<linearGradient id="g34" x1="1282.9" y1="1286.7" x2="1276.5" y2="1156.9" gradientUnits="userSpaceOnUse">
			<stop offset="0" stop-color="#fb9a2b"/>
			<stop offset="1" stop-color="#e65925"/>
		</linearGradient>
		<linearGradient id="g35" x1="1370.8" y1="823.6" x2="1244.2" y2="1050.6" gradientUnits="userSpaceOnUse">
			<stop offset="0" stop-color="#53cd9f"/>
			<stop offset="1" stop-color="#0d7a5c"/>
		</linearGradient>
		<linearGradient id="g36" x1="897.1" y1="1130.7" x2="1146.7" y2="1130.7" gradientUnits="userSpaceOnUse">
			<stop offset="0" stop-color="#53cd9f"/>
			<stop offset="1" stop-color="#0d7a5c"/>
		</linearGradient>
		<linearGradient id="g37" x1="1175.1" y1="714.4" x2="1048.5" y2="941.4" gradientUnits="userSpaceOnUse">
			<stop offset="0" stop-color="#53cd9f"/>
			<stop offset="1" stop-color="#0d7a5c"/>
		</linearGradient>
		<linearGradient id="g38" x1="625.4" y1="1016.9" x2="779.2" y2="1016.9" gradientUnits="userSpaceOnUse">
			<stop offset="0" stop-color="#53cd9f"/>
			<stop offset="1" stop-color="#0d7a5c"/>
		</linearGradient>
		<linearGradient id="g39" x1="1049.3" y1="644.3" x2="922.7" y2="871.3" gradientUnits="userSpaceOnUse">
			<stop offset="0" stop-color="#53cd9f"/>
			<stop offset="1" stop-color="#0d7a5c"/>
		</linearGradient>
		<linearGradient id="g40" x1="786.5" y1="785.6" x2="1059.8" y2="785.6" gradientUnits="userSpaceOnUse">
			<stop offset="0" stop-color="#53cd9f"/>
			<stop offset="1" stop-color="#0d7a5c"/>
		</linearGradient>
		<linearGradient id="g41" x1="893.1" y1="1191.5" x2="1099.9" y2="1191.5" gradientUnits="userSpaceOnUse">
			<stop offset="0" stop-color="#00503e"/>
			<stop offset="1" stop-color="#023222"/>
		</linearGradient>
		<linearGradient id="g42" x1="170.7" y1="539" x2="180.4" y2="390.4" gradientUnits="userSpaceOnUse">
			<stop offset="0" stop-color="#fb9a2b"/>
			<stop offset="1" stop-color="#e65925"/>
		</linearGradient>
		<linearGradient id="g43" x1="299.9" y1="340.2" x2="225.2" y2="534.6" gradientUnits="userSpaceOnUse">
			<stop offset="0" stop-color="#fb9a2b"/>
			<stop offset="1" stop-color="#e65925"/>
		</linearGradient>
		<linearGradient id="g44" x1="299.7" y1="340.1" x2="225" y2="534.5" gradientUnits="userSpaceOnUse">
			<stop offset="0" stop-color="#fb9a2b"/>
			<stop offset="1" stop-color="#e65925"/>
		</linearGradient>
		<linearGradient id="g45" x1="669.7" y1="1113.2" x2="533.5" y2="1189" gradientUnits="userSpaceOnUse">
			<stop offset="0" stop-color="#fb9a2b"/>
			<stop offset="1" stop-color="#e65925"/>
		</linearGradient>
		<linearGradient id="g46" x1="666.5" y1="1163.4" x2="555.3" y2="1295.5" gradientUnits="userSpaceOnUse">
			<stop offset="0" stop-color="#00503e"/>
			<stop offset="1" stop-color="#023222"/>
		</linearGradient>
		<linearGradient id="g47" x1="697.6" y1="1186.4" x2="586.5" y2="1318.2" gradientUnits="userSpaceOnUse">
			<stop offset="0" stop-color="#00503e"/>
			<stop offset="1" stop-color="#023222"/>
		</linearGradient>
		<linearGradient id="g48" x1="644.4" y1="1046.7" x2="499.3" y2="1127.5" gradientUnits="userSpaceOnUse">
			<stop offset="0" stop-color="#fb9a2b"/>
			<stop offset="1" stop-color="#e65925"/>
		</linearGradient>
		<linearGradient id="g49" x1="648.1" y1="1053.6" x2="503.5" y2="1134.2" gradientUnits="userSpaceOnUse">
			<stop offset="0" stop-color="#fb9a2b"/>
			<stop offset="1" stop-color="#e65925"/>
		</linearGradient>
		<linearGradient id="g50" x1="516.4" y1="1545.2" x2="567.5" y2="1545.2" gradientUnits="userSpaceOnUse">
			<stop offset="0" stop-color="#fb9a2b"/>
			<stop offset="1" stop-color="#e65925"/>
		</linearGradient>
		<linearGradient id="g51" x1="584.8" y1="1545.2" x2="635.9" y2="1545.2" gradientUnits="userSpaceOnUse">
			<stop offset="0" stop-color="#fb9a2b"/>
			<stop offset="1" stop-color="#e65925"/>
		</linearGradient>
		<linearGradient id="g52" x1="639.9" y1="1045.4" x2="497.9" y2="1124.5" gradientUnits="userSpaceOnUse">
			<stop offset="0" stop-color="#fb9a2b"/>
			<stop offset="1" stop-color="#e65925"/>
		</linearGradient>
	</defs>
	<style>
		.s0 { opacity: .6;fill: #b7d972 } 
		.s1 { fill: #473b1e } 
		.s2 { fill: #847d3d } 
		.s3 { fill: url(#g1) } 
		.s4 { fill: url(#g2) } 
		.s5 { fill: url(#g3) } 
		.s6 { fill: url(#g4) } 
		.s7 { fill: url(#g5) } 
		.s8 { fill: #efac7f } 
		.s9 { fill: #d19369 } 
		.s10 { fill: url(#g6) } 
		.s11 { fill: #ffffff } 
		.s12 { fill: #b7d972 } 
		.s13 { fill: url(#g7) } 
		.s14 { fill: url(#g8) } 
		.s15 { fill: url(#g9) } 
		.s16 { fill: url(#g10) } 
		.s17 { opacity: .2;mix-blend-mode: multiply;fill: #45258f } 
		.s18 { fill: url(#g11) } 
		.s19 { fill: url(#g12) } 
		.s20 { fill: url(#g13) } 
		.s21 { fill: url(#g14) } 
		.s22 { opacity: .3;mix-blend-mode: multiply;fill: url(#g15) } 
		.s23 { fill: url(#g16) } 
		.s24 { fill: url(#g17) } 
		.s25 { opacity: .3;fill: #ffffff } 
		.s26 { opacity: .5;mix-blend-mode: multiply;fill: url(#g18) } 
		.s27 { fill: url(#g19) } 
		.s28 { fill: url(#g20) } 
		.s29 { fill: url(#g21) } 
		.s30 { fill: url(#g22) } 
		.s31 { fill: url(#g23) } 
		.s32 { fill: url(#g24) } 
		.s33 { fill: url(#g25) } 
		.s34 { fill: url(#g26) } 
		.s35 { fill: url(#g27) } 
		.s36 { fill: #d1eaf2 } 
		.s37 { fill: url(#g28) } 
		.s38 { fill: url(#g29) } 
		.s39 { fill: url(#g30) } 
		.s40 { opacity: .2;mix-blend-mode: multiply;fill: #74bdc1 } 
		.s41 { opacity: .5;mix-blend-mode: multiply;fill: #74bdc1 } 
		.s42 { mix-blend-mode: multiply;fill: #f4a640 } 
		.s43 { opacity: .3;fill: #847d3d } 
		.s44 { fill: url(#g31) } 
		.s45 { fill: url(#g32) } 
		.s46 { fill: url(#g33) } 
		.s47 { fill: url(#g34) } 
		.s48 { mix-blend-mode: multiply;fill: #7772d6 } 
		.s49 { fill: url(#g35) } 
		.s50 { fill: url(#g36) } 
		.s51 { fill: url(#g37) } 
		.s52 { fill: url(#g38) } 
		.s53 { fill: url(#g39) } 
		.s54 { fill: url(#g40) } 
		.s55 { opacity: .9;fill: #edfdfc } 
		.s56 { opacity: .9;fill: #d1eaf2 } 
		.s57 { opacity: .9;fill: #ffffff } 
		.s58 { fill: #333333 } 
		.s59 { fill: #282828 } 
		.s60 { fill: #002a24 } 
		.s61 { fill: #edfdfc } 
		.s62 { fill: url(#g41) } 
		.s63 { fill: #ffc0bb } 
		.s64 { fill: url(#g42) } 
		.s65 { fill: url(#g43) } 
		.s66 { fill: url(#g44) } 
		.s67 { fill: url(#g45) } 
		.s68 { fill: url(#g46) } 
		.s69 { fill: #f3fdff } 
		.s70 { fill: #7772d6 } 
		.s71 { fill: url(#g47) } 
		.s72 { fill: #45258f } 
		.s73 { fill: url(#g48) } 
		.s74 { fill: url(#g49) } 
		.s75 { fill: url(#g50) } 
		.s76 { fill: url(#g51) } 
		.s77 { fill: url(#g52) } 
	</style>
	<g id="Layer 1">
		<g id="&lt;Group&gt;">
			<path id="&lt;Path&gt;" class="s0" d="m142.8 897.8l15.4-9.3 50.4-14.4 62.2-25.4 49.2-27.7 48.9-37 40.8-31.9h21.2l58.9 89.6c0 0 49.9 36.9 49.5 38.4-0.3 1.5-49.9 124.5-49.9 126 0 1.5-23.6 571.3-23.6 571.3h-144.9l-140.8-6.1c0 0-37.4-10.3-39.1-10.3-1.7 0-53.7-28.2-55.4-29.1-1.7-0.9-29-23.3-29.1-23.7-0.2-0.5-27.9-36.6-27.9-36.6 0 0-12.7-48.6-12.7-50.2 0-1.7 3.9-79.5 3.9-79.5l43.6-142.2 77.6-289.9z"/>
			<g id="&lt;Group&gt;">
				<path id="&lt;Path&gt;" class="s1" d="m1599.1 820c0 0 81.3 135.6 89.9 226.3 7.1 74.7-5.5 73.5-5.5 73.5 0 0-39.4 23.5-113.4-139.8l-4.4-19.2c0 0 65.2 138.1 102.5 148 37.3 9.9-98.1-268.6-98.1-268.6l20.8-30.6z"/>
			</g>
			<g id="&lt;Group&gt;">
				<path id="&lt;Path&gt;" class="s1" d="m1603.6 812.5c0 8-6.5 14.4-14.5 14.4-7.9 0-14.4-6.4-14.4-14.4 0-8 6.5-14.4 14.4-14.4 8 0 14.5 6.4 14.5 14.4z"/>
			</g>
			<path id="&lt;Compound Path&gt;" fill-rule="evenodd" class="s2" d="m628.9 1440.5l-163.6 142.7h-258.3l-0.4-0.1c-87.4-18-146.2-52-174.7-101.2-40.5-69.8-12.7-154.9 5.8-211.2l0.2-0.6c24.9-76.2 85.1-311.9 97.6-360.5-5-12.3-19.2-58.5 4.8-141.6 9.8-33.8 24.3-55.5 44.5-66.2 30.3-16.1 66.6-4.3 101.6 7.1 8.7 2.8 17 5.5 25 7.7 52.4 14.4 103.2 25.8 114.2 28.2q0.9 0.2 1.7 0.4 0.5 0.1 0.5 0.1v0.1c1.7 0.5 3.2 1.5 4.5 3 1.2 1.3 71.5 109.5 78.9 122.4l109.4-5.6v4.5zm-483.1-548.6c13-9.3 37.6-17.2 46.6-19.8 2.7-0.9 89.1-29.4 124.8-55.2 11.9-8.7 25.3-19.1 38.2-29.3 20-15.7 35.2-27.5 46.3-34.6-44 6.8-74.1-9.6-102.7-19.9-34.2-12.3-63.7-22.9-106.8-0.8-48.2 24.7-46.9 119.9-46.5 155.7q0 2.2 0.1 3.9zm-7.1 44.4c6.5 6.2 24.6 22.5 53.3 41.7 8.1-31.8 14.1-55.9 16.7-66.2q-1.9 0.5-3.8 1h-0.2c-0.6 0.2-13.7 2.7-28 3.8q-6.5 0.5-11.9 0.5c-9 0-15.7-1.1-20.3-3.3-1.3 5.2-3.3 12.9-5.8 22.5zm155.1 3c-2 25.4-4.5 56.3-7.3 89 20.8 8.6 44.2 16.9 70.1 23.9-1.6-30-2.7-58.7-3.6-84.7-13.2-5.5-25.2-11-35.8-16.2-8.4-4-16.2-8.1-23.4-12zm26.3 6.6c9.7 4.7 20.6 9.8 32.6 14.8-1.4-42.4-2.1-77.1-2.4-97.6q-3-2.5-5-4.4c-14.7 8.1-30.5 15.7-46.9 22.7-0.7 8.9-2.1 27.2-4 51.2 7.8 4.3 16.4 8.7 25.7 13.3zm-28.1-61.9c-15.8 6.5-32.1 12.4-48.2 17.6 8.1 5.7 23.4 15.8 44.6 27.7 1.6-20.1 2.9-36 3.6-45.3zm-55.5 19.9q-10.6 3.3-21 6.1c-1.8 7.4-8.6 34.5-18 71.6 12 7.9 25.8 16.1 41.2 24.3 12.4 6.5 26.4 13.3 41.8 19.9 2.8-33.1 5.4-64.3 7.4-89.7-26.8-14.8-44.6-27.3-51.4-32.2zm-64.7 178.8c15.3 12.2 33.4 25.5 53.9 38.9 13.1 8.7 27.8 17.7 44 26.7 3.5-36.7 7-77.4 10.3-116-15.1-6.4-30-13.4-44.4-21.1-14.7-7.8-28-15.7-39.7-23.3-7 27.9-15.4 60.7-24.1 94.8zm-1.7 6.5c-7.3 28.7-14.9 58.1-22.1 86 17.9 15.4 39.3 32.8 63.6 50.8 13.8 10.2 29.2 21.1 45.9 32.1 3.1-19.2 7.2-57.6 11.6-103-15.9-8.8-31.6-18.3-47-28.4-19.6-12.9-37-25.7-52-37.5zm-23.8 92.7c-11.2 42.9-21.5 81.8-28.9 108.4q-0.2 0.6-0.4 1.3c17.4 15.7 38 33.3 61.4 51.3 20.7 15.9 44.8 33.1 71.8 50.1-3.9-51.3 1.3-98.4 6.2-128.3-17.7-11.6-34-23.1-48.6-33.9-23.3-17.2-44-34-61.5-48.9zm-31.1 116.3c-11.1 42.2-17.9 89.8-11.7 134.8q5.6 4.1 11.6 8.3c38 26.5 94.3 58.5 172.7 86.3-22.4-39.6-32.9-84.4-36.9-126.8-25.7-16-51.2-33.7-76.4-53.1-22.4-17.3-42.3-34.2-59.3-49.5zm141.5 98.8c51.6 31.8 113.1 62.1 180.4 80.5-8.6-15.3-18.1-33.5-28.5-55.2-9.1-19.1-17.3-48.5-24.4-87.7-45-19.7-86.4-43.1-122.1-66.2-4.9 30.5-9.8 77.8-5.4 128.6zm126.1-69.7c-6.1-35.1-11.4-77.7-16-127.5q-6.1-2.3-12.3-4.6c-26.9-10.4-53.5-22.8-79.6-36.9-4.4 46.4-8.6 85.2-11.7 103.2q0 0.1 0 0.2c35 22.8 75.5 45.9 119.6 65.6zm-16.6-134.5q-4.3-47.6-7.6-104-0.9-15.1-1.7-30c-24.2-6.5-48-14.5-70.9-24-3.3 39-6.9 80-10.4 116.8 26.6 14.5 57 28.8 90.6 41.2zm-3.3-138.9c40.8 10.7 87.6 18.3 139.7 19.7q-1.2-3.6-2.4-7.1c-7.1-21-14.3-41.3-21.4-60.6-45.7-9-86.3-22.3-119.5-35.8 0.9 25.8 2.1 54.2 3.6 83.8zm113.4-54.8c-11.9-32-23.5-61.3-34-86.6-24.5-9.1-43.5-18.3-57.3-26.1-12.2-6.8-21.5-13.2-28.4-18.4 0.3 21.4 1.1 54.9 2.4 95.3 32.6 13.4 72.3 26.7 117.3 35.8zm-37.3-94.5c-17.9-42.4-32.3-72.5-39.2-83.7-11.9 11-26.8 21.6-43.5 31.5q0.1 3.3 0.1 7.6c13.5 10.6 39.6 28.1 82.6 44.6zm-23.7-118.3c13.6-26.4 9.7-31.5 9.7-31.5-7.9-5.3-41.9 23.6-63.5 40.6-13 10.2-26.5 20.7-38.6 29.5-37.3 27-123.9 55.4-127.5 56.6h-0.1c-0.2 0-12.2 3.6-24.4 8.6-19.6 7.9-23.1 12.7-23.7 13.8 4.3 5.2 32.3 3.8 55.4-0.7 72.7-16.8 150.5-60.5 150.5-60.5 30.5-18.5 52.7-38.1 62.2-56.4zm-275.8 111.4q0 0 0.1-0.1c0-2.3 0-5.8 0-9.5-0.5-36.9-1.8-134.9 49.8-161.3 45.5-23.3 77.6-11.7 111.6 0.5 29.4 10.6 57.7 26.4 100.4 19.5-22.2-5.1-56.7-13.5-91.9-23.1-8.2-2.3-16.5-5-25.3-7.9-33.6-10.9-68.3-22.2-95.8-7.6-18.4 9.8-31.7 30-40.9 61.8-19.2 66.3-13.1 108.7-8 127.7zm-25.5 133.2c5.8 6.1 23.9 24.4 52.5 47.6 8.7-34 17-66.6 23.9-94.1-27-17.9-45-33.5-53.4-41.3-5.9 22.5-13.9 53.4-23 87.8zm-24.2 90.2c5.2 5.4 24 24.4 53 49.6 7.2-27.9 14.8-57.2 22-85.7-26.6-21.4-44.6-39-52.7-47.2-7.1 26.7-14.7 55.2-22.3 83.3zm-31.6 112.3c7.2 7.9 25.9 27.9 53.7 53.5 7.5-27.1 17.9-66.4 29.2-109.5-26.9-23.3-45.4-41.5-53.2-49.4-10.5 38.4-20.8 75.5-29.7 105.4zm-34.6 123c6.3 8.9 28.5 37.5 73.2 71.6-4.5-39.7-0.1-84.8 13.3-134.4-26.5-24.1-45-43.7-53.9-53.3-3.7 12.4-7.1 23.3-10.1 32.4l-0.2 0.7c-7.7 23.6-17.2 52.5-22.3 83zm157.5 211.8c-43.3-28-70.6-68.2-81.1-119.9q-1.1-5.8-2-11.7c-42.5-31.6-65.8-58.5-75.7-71.5-5.3 37.7-3.2 77.3 17.2 112.4 24.1 41.7 71.7 72.1 141.6 90.7zm141.8 6.3c-11.7-11.9-21.7-24.9-30.1-38.6-14.9-5.1-29.4-10.5-43.5-16.2-51.6-20.9-98.1-45.6-138.1-73.6q-3.2-2.2-6.3-4.5c9.1 51.8 36.4 99.4 95.3 130.7l-0.2 0.5q3.9 0.9 8 1.7zm115.8 0c-48.2-9.3-93.9-21.2-136.6-35.4 8.4 12.6 18.2 24.5 29.6 35.4zm50.6-23.7c-7.8-6.9-24.1-24.4-48-65.8-42.8-11.1-86.2-27.8-129.6-49.8-18.1-9.2-36.2-19.4-54.3-30.4 4.5 42.6 15.8 87.1 39.4 125.9 47.6 16.3 103 31.1 167.2 42.2zm95.4-83.3c-2.2-126.5-43.7-278.2-80.1-387.6-48.5-1.1-95.9-7.6-141.4-19.3 2.3 43.7 5.4 89.9 9.4 134.6 46.3 16.6 98.5 29.2 155.2 33.5l-0.5 6.1c-51.6-3.9-103.3-14.9-154.1-32.7 4.4 46.2 9.7 90.5 16.5 128.2 37 16.1 76.5 29.5 117.3 38l-1.3 6c-39.8-8.3-78.4-21.2-114.7-36.7 6.4 34.5 14.1 63.1 23.1 82.1 11.5 24.1 22 43.8 31.2 60 12.8 3.2 25.8 6.1 38.9 8.4l-1.1 6.1q-16.6-3-33.4-7.1c22.7 38.4 37.8 53.9 44.3 59.6zm35.4-31l-8.1-562.4-105.7 5.4-1.3-2.3c-0.4-0.7-37.6-66.3-71.7-108.3-1.8 6.1-5 13.3-9.4 21.9-4.4 8.6-11 17-19.2 25.3 7.5 12.4 23.2 45.5 42.3 91.5 25.8 9.3 57.2 18.2 94.9 25.1l-1.1 6.1c-35.8-6.6-65.9-14.9-90.7-23.5 10.4 25.2 21.7 54 33.2 85.1 16.6 3.2 33.9 5.8 51.8 7.5l-0.6 6.2c-16.8-1.7-33.1-4.1-48.7-6.9 6.7 18.4 13.5 37.6 20.1 57.3q1.6 4.6 3.2 9.2 12.6 0.3 25.6 0l0.2 6.1q-7.5 0.2-15 0.2-4.4 0-8.8-0.1c35.9 108.3 76.4 256.8 79.6 382.3z"/>
			<g id="&lt;Group&gt;">
				<path id="&lt;Path&gt;" class="s3" d="m537.1 628.8c-71.6-101.7-135.8-134.6-151.3-141.4-15.5-6.8-57.1-27.9-42.9-46.4 14.1-18.6 76 3.7 108.1 33.5 32 29.8 80.9 101.5 80.9 101.5 0 0 76.7 154.5 5.2 52.8z"/>
			</g>
			<g id="&lt;Group&gt;">
				<path id="&lt;Path&gt;" class="s4" d="m540.7 657.2c-89.9-77.6-194.3-68.7-239.4-71.2-27.6-1.5-26.6-10.2-21.8-16.8 3.5-4.6 8.7-7.7 14.3-9 169.7-39.2 274.5 94.1 274.3 96.3 0 0 62.5 78.2-27.4 0.7z"/>
			</g>
			<g id="&lt;Group&gt;">
				<path id="&lt;Path&gt;" class="s5" d="m544.1 668c-71.7-29.8-164.2-22.6-183.1-20.8-18.9 1.8-57.9-17.9 30.1-28.1 108.7-12.6 174.1 50.1 176.6 49.4 0 0 48.2 29.4-23.6-0.5z"/>
			</g>
			<path id="&lt;Path&gt;" class="s2" d="m657.3 649.3c0 0 9.9-240.6 214.9-321.7 204.9-81.1 340.8 116.2 365 321.7l-60.3 25.8-9.9-25.8c0 0 4.4-316.2-204.1-310.7-206.2 5.4-246.4 315.7-246.4 315.7 0 0-32.9 83.3-35.1 75.6-2.2-7.7-24.1-80.6-24.1-80.6z"/>
			<path id="&lt;Path&gt;" class="s6" d="m1589.1 815.2c0 7.4-5.9 13.3-13.3 13.3h-216.5c-7.4 0-13.3-5.9-13.3-13.3 0-7.3 5.9-13.3 13.3-13.3h216.5c7.4 0 13.3 6 13.3 13.3z"/>
			<g id="&lt;Group&gt;">
				<path id="&lt;Path&gt;" class="s7" d="m843.5 795.1c21.5 82.1-57.3 113.8-63.9 116.3q-0.4 0.2-0.9 0.4c-6.3 3-83.7 38.2-128.3-34-46.5-75.3-185.3-432.6-185.3-432.6 0 0-39.9-115.3 48.1-154.5 89-36.6 145 71.7 145 71.7 0 0 162.9 347.1 185.3 432.7z"/>
			</g>
			<g id="&lt;Group&gt;">
				<path id="&lt;Path&gt;" class="s8" d="m929.4 556.3l13.9 13.3c0 0-2.6 11.4-2.5 12.1 0 0.6-4.7 2.2-5.2 2.7-0.5 0.6-18.6-10.6-18.6-10.6z"/>
			</g>
			<g id="&lt;Group&gt;">
				<path id="&lt;Path&gt;" class="s8" d="m1034.1 553.3l-4.8-5.7c0 0 1.4-7.7 4.7-11.1 3.4-3.5 25.1-10.3 25.1-10.3z"/>
			</g>
			<path id="&lt;Path&gt;" class="s2" d="m604.1 335.7c1 65-38.4 118.4-65.8 147.6-9.3 9.9-25.9 2.5-24.6-11.1 3.6-39.9 17.5-104.8 66.8-147.1 9.2-7.9 23.4-1.5 23.6 10.6z"/>
			<g id="&lt;Group&gt;" style="opacity: .6">
				<path id="&lt;Path&gt;" class="s9" d="m941.9 575.8c-3.4 0.4-10.7-0.1-18.3-11.3l5.8-8.2 13.9 13.3c0 0-0.7 3.1-1.4 6.2z"/>
			</g>
			<g id="&lt;Group&gt;">
				<g id="&lt;Group&gt;">
					<path id="&lt;Path&gt;" class="s10" d="m274.2 1209.1c15.1-24.2 64.9 17.7 79.3-15.4 18.1-41.4-160.5-35.8-125.7-93 21.6-35.3 57.5 9.5 89.4-36.9 31.9-46.3-142.4-58.3-115.1-107.8 27.3-49.5 109.1 4 79.7-52-29.3-56-110-157.8-8.3-160.1 101.7-2.3 97 194.7 118.3 194.1 21.3-0.6 51-57.7 79.3-29.8 28.2 27.9-35.3 176.6-7.1 173.6 28.2-3.1 66.4-56.8 89.7-11.8 23.3 45-50.8 84.8-61.9 123.8-11.2 38.9 25.5 39.3 25.5 39.3 79-56.9 85.1-31.4 85.1-31.4 61.9 61.9-148.6 211.1-148.6 211.1-127.3-51.5-194.7-179.6-179.6-203.7z"/>
				</g>
				<g id="&lt;Group&gt;" style="opacity: .1;mix-blend-mode: color-dodge">
					<path id="&lt;Path&gt;" class="s11" d="m587.6 1228.8c-17.2 18.6-36 34.2-55.7 46.2-20.8 12.7-42.7 21.5-65.3 26.3q-5.9 1.2-11.7 2c4 39.8 4.1 76.1 0.2 108.5q-1.3 1-1.3 1-0.6-0.3-1.2-0.5c2.8-23.6 3.5-48.5 2.3-74.2-50-8.2-98.9-48.2-131.2-80.4-19.9-19.8-36-39.2-46.4-52.3q0.9-0.9 2-1.5c10.3 13.1 26.4 32.4 46.2 52.1 31.9 31.8 80.1 71.3 129.3 79.6-3.1-59.8-15.7-123.9-32.9-186.2-52.7-26.5-150-37.6-197.4-41.6q0.4-1.2 0.9-2.4c47.3 4 142.4 15 195.6 40.8-12.1-43.7-26.5-86.4-41.1-125.9-3.7-2-30.6-17.1-69.2-32.1-28.4-11.1-67.6-24-109.5-30.2q0.4-1 0.9-2 0.1-0.2 0.2-0.3c41.9 6.3 81 19.1 109.4 30.2 33.6 13.2 58.5 26.3 66.8 30.8-6.6-17.8-13.4-35-20-51.2-39.3-97-81-178.8-102.9-219.9q1.3-0.2 2.6-0.4c22 41.4 63.4 122.9 102.6 219.3 14.1 34.6 26.7 68.2 37.7 100.7 2.3-10.9 8.8-40.2 20.2-72.9 9.8-28.1 24.7-63 45.1-89.5q1.1 0.6 2.2 1.3c-20.3 26.2-35.2 61-44.9 89.1-13.6 39-20.3 73.1-21 76.7 14.5 42.6 26.3 83.3 35.4 121.6q0 0.3 0.1 0.5c39.8-71.7 81.5-105.4 109.6-121.1q3.6-2 7-3.7 0.6 1.1 1.2 2.2-3.5 1.7-7.1 3.8c-28.1 15.7-70 49.7-109.9 122.4 8.7 37.4 14.8 72.5 18.2 105.3 60.1-8.9 104.5-44.9 131.2-73.7 7.2-7.9 13.6-15.6 19.1-22.8q0.8 0.9 1.6 2c-5.5 7.1-11.7 14.7-18.9 22.4z"/>
				</g>
			</g>
			<g id="&lt;Group&gt;">
				<path id="&lt;Path&gt;" class="s12" d="m122.5 1017.9c45.1-24.2 61.9 47.3 65.6 66.6 19 2.8 36.2 6.8 51.6 11.4-14.2-20.3-38.7-26.9-43.3-42.1-5.1-16.9 1.9-37.6 32-20.6 24 13.5 19.9 50 17.2 64.5 26.4 8.5 47 18.7 61.5 27.2-12.6-25.5-40-36-43.2-53.7-3.4-19.4 6.9-41.3 38-18.6 25.7 18.8 14.6 61.1 10 75.2 13 8.1 20 14.2 20.8 14.8 14.2 12.2 27.2 24.6 39.1 37.1-10.5-22.7-31.9-36-32.5-52.4-0.7-19.6 12.6-39.9 40.2-13 21.8 21.2 7.3 59.1 0.2 74 24.2 26.6 43.3 53.5 58.5 79.4-1.5-23.1-20.6-54.9-14.4-76.4 4.1-14.1 14.1-17.5 21.8-17.9 6.6-0.3 12.9 2.4 17.3 7.3 25.1 27.9-10.5 77.4-21.9 91.9 18.3 32 30.6 62.3 38.8 88.2-0.7-11.9-1.7-29.9-2.7-39.3-1.6-14.7 4.1-35.3 15.6-43.7q0.7-0.5 1.4-1c9.1-5.7 21.1-3.4 28.3 4.6 28.3 31.4-27.3 79.3-39.6 89.3q0.1 0.3 0.1 0.5c19.1 65.9 16.2 112.3 16.1 114.2l-7.2-0.5c0-0.4 2.7-44.6-14.3-106.4-67.4-7.3-86.1-45.9-77-60.3 9.4-14.8 35.7-20.3 47.7 7.6 6.9 16.2 18 31.5 26.1 41.6-8-26.2-20.2-57.3-39-90.3-88.1 20.6-95.8-35-77.8-48 18.1-13.1 32.8-5.1 47.1 15.9 9.6 14 21.4 23.2 28.3 27.8-14.8-25.4-33.5-51.9-57.1-78.1-10.7 12-40.2 41-68.6 29.1-35.5-14.9-22.1-35.1-3.7-42.1 16.9-6.5 40.3 11.8 68.8 9.2-13.2-14.4-27.9-28.8-44.3-42.8-0.3-0.2-14.4-12.4-41.1-25.7-9.2 13.4-34.8 45.5-64.3 37.3-37-10.3-26.3-32-8.9-41.3 15.4-8.3 39.9 5.8 66.9 0.9-22.9-10.8-53.9-21.8-92.4-27.5-9.7 13.9-34.8 44.6-63.7 36.6-37.1-10.4-26.3-32-9-41.3 15.7-8.5 40.6 6.2 68.1 0.7l0.1-0.8c-9.5-4-29.8-12.7-39.8-16.3-13.2-4.8-28.1-18.4-29.8-32-1.6-13.5 8.4-20.8 8.4-20.8z"/>
			</g>
			<g id="&lt;Group&gt;">
				<path id="&lt;Path&gt;" class="s13" d="m374.5 1506.4c-89.2-36.9-146-127.1-146-127.1l47.7-22.6-58.2-12.5c-33.8-27.5-139.4-187.2-139.4-187.2 82.7 13.1 188.7 60.4 188.7 60.4l27.9 65.2-7.4-58.5c178.9 88.8 214.8 245.2 214.8 245.2 0 0-39 73.9-128.1 37.1z"/>
			</g>
			<g id="&lt;Group&gt;">
				<g id="&lt;Group&gt;">
					<path id="&lt;Path&gt;" class="s14" d="m194.2 1360.1l19.6 38.8c0 0 4.3-22.8 7.6-43 28.4-3.1 59-1.9 90 6.7l-6.6 38.8c0 0 15.9-19.3 26.8-32.1 61.8 23.6 123.9 78.7 173.5 189.8 0 0-183.6 64.9-324.3-17.1l19.6-42.5c0 0-24.2 14-44.3 26.3-34.5-25.7-65.3-61.8-88.7-111.9 0 0 53.5-38.9 126.8-53.8z"/>
					<path id="&lt;Path&gt;" class="s15" d="m505.1 1559.1c0 0-281.4-34.4-437.7-145.2 0 0 53.5-38.9 126.8-53.8l19.6 38.8c0 0 4.3-22.8 7.6-43 28.4-3.1 59-1.9 90 6.7l-6.6 38.8c0 0 15.9-19.3 26.8-32.1 61.8 23.6 123.9 78.7 173.5 189.8z"/>
				</g>
			</g>
			<path id="&lt;Path&gt;" class="s2" d="m662.9 469.9c1 64.9-38.4 118.4-65.8 147.6-9.3 9.9-25.9 2.4-24.6-11.1 3.6-39.9 17.5-104.8 66.8-147.2 9.2-7.8 23.4-1.4 23.6 10.7z"/>
			<path id="&lt;Path&gt;" class="s2" d="m732.6 617.5c1.1 65-38.3 118.4-65.8 147.6-9.3 9.9-25.8 2.4-24.6-11.1 3.7-39.9 17.5-104.8 66.8-147.1 9.2-7.9 23.4-1.5 23.6 10.6z"/>
			<g id="&lt;Group&gt;">
				<path id="&lt;Path&gt;" class="s16" d="m1203.9 599.4c-5.4 4.4-10.4 13.8-15.6 23.7-7.9 14.7-16.7 31.3-32.7 45.1-17.7 15.1-38.5 21.4-55.2 26.5-4.1 1.2-8 2.4-11.7 3.7l-90.6-26.2c15-17.1 33.9-30.9 55.1-39.7 8.9-3.7 17.8-6.4 25.7-8.8 11.6-3.5 22.5-6.9 28.4-11.9 5.3-4.6 10.2-13.8 15.4-23.6 7.6-14.3 17.1-32.1 33.8-45.9 22.4-18.7 49.5-23.4 71.3-27.2 15.3-2.7 29.7-5.2 36.8-11.3 3.8-3.3 7.9-9.7 12.3-16.5 2.7-4.3 5.5-8.7 8.8-13.3 15.2-21.1 35.6-38 58.8-49.5l8.9 30.5 2.5-35.6c15.2-6.2 31.3-10.1 47.8-11.3 2.6-0.2 5.1-0.3 7.5-0.4 3.8-0.2 39.2-4.6 50.2 4.3 15.2 12.2 17.4 33.1 8.2 48l-33.2-6.7 21.3 18.3q-1.3 0.9-2.8 1.6-4.1 2-8.6 3.6c-11.9 4.1-22.8 4.6-31.6 5-2 0.1-3.9 0.2-5.6 0.3-24.6 1.8-48.8 15.4-63.2 35.3-2.1 2.9-4.2 6.3-6.5 9.9-3.6 5.6-7.7 11.9-12.7 18.2l-38.7-3.5 29.1 14.3q-2 1.9-4.1 3.7c-22.6 19.5-50.2 24.3-72.4 28.2-15.2 2.6-29.5 5.1-36.7 11.2z"/>
				<path id="&lt;Path&gt;" class="s17" d="m1472.1 425.9c4.7 11.1 3.8 23.9-2.5 34.1l-33.2-6.7 21.3 18.3q-1.3 0.9-2.8 1.6-4.1 2-8.6 3.6c-11.9 4.1-22.8 4.6-31.6 5-2 0.1-3.9 0.2-5.6 0.3-24.6 1.8-48.8 15.4-63.2 35.3-2.1 2.9-4.2 6.3-6.5 9.9-3.6 5.6-7.7 11.9-12.7 18.2l-38.7-3.5 29.1 14.3q-2 1.9-4.1 3.7c-22.6 19.5-50.2 24.3-72.4 28.2-15.2 2.6-29.5 5.1-36.7 11.2-5.4 4.4-10.4 13.8-15.6 23.7-7.9 14.7-16.7 31.3-32.7 45.1-17.7 15.1-38.5 21.4-55.2 26.5-4.1 1.2-8 2.4-11.7 3.7l-20.5-5.9c56.1-19.9 59.6-98.5 126.4-122.6 87.8-31.8 59.3-26.1 157.3-103.6 48.9-38.6 90-44.9 120.2-40.4z"/>
			</g>
			<g id="&lt;Group&gt;">
				<path id="&lt;Path&gt;" class="s18" d="m1291.6 398.6c-2.7 11.9-5.9 26.3-12.9 40.7-22 5.2-64.8 15.3-60 14.3 4.6-1 33.6 0.6 50.5 1.6-17.2 24-41.7 38-61.8 49.6-15.5 8.9-30.2 17.3-35.8 26.9-4.1 7-5.9 19.3-7.7 32.2-2.7 19.3-5.8 41.1-17.9 62.5-13.4 23.7-33.7 38.9-50 51.2-6.6 4.9-12.9 9.6-17.9 14.3q-1.4 1.3-2.8 2.6l-88.6-25.6c8.8-15.1 19.8-28.9 32.7-40.8 8.3-7.6 17-14.1 24.7-19.9 11.3-8.5 22-16.5 26.4-24.4 4.1-7.1 5.8-19.2 7.6-32 2.6-18.7 5.9-42.1 18.7-63.9 17.2-29.4 45.1-45.4 67.5-58.3 15.7-9 30.5-17.5 35.8-27 2.9-5.2 4.9-13.8 6.9-23 1.3-5.8 2.7-11.8 4.5-18.1 13.9-49.1 48.5-91.2 93.6-114.7l14.2 11.8-3.8-16.8c2.5-1.1 4.9-2.1 7.2-3.1 4.1-1.7 41.3-20.7 56.9-15.3 29.3 10 38.8 47.3 17.3 69.7q-3.7 3.9-8.1 7.4c-11.4 9.2-23.2 14.2-32.7 18.2-2.1 0.9-4.2 1.7-6 2.5-26.2 11.8-47.4 36.3-55.3 63.9-1.1 4.1-2.1 8.6-3.2 13.5z"/>
				<path id="&lt;Path&gt;" class="s17" d="m1405.9 249.2c5.3 14.4 2.9 31.4-9 43.9q-3.7 3.9-8.1 7.4c-11.4 9.2-23.2 14.2-32.7 18.2-2.1 0.9-4.2 1.7-6 2.5-26.2 11.8-47.4 36.3-55.3 63.9-1.1 4.1-2.1 8.6-3.2 13.5-2.7 11.9-5.9 26.3-12.9 40.7-22 5.2-64.8 15.3-60 14.3 4.6-1 33.6 0.6 50.5 1.6-17.2 24-41.7 38-61.8 49.6-15.5 8.9-30.2 17.3-35.8 26.9-4.1 7-5.9 19.3-7.7 32.2-2.7 19.3-5.8 41.1-17.9 62.5-13.4 23.7-33.7 38.9-50 51.2-6.6 4.9-12.9 9.6-17.9 14.3q-1.4 1.3-2.8 2.6l-40.7-11.7c36.8-31.9 72.3-70.3 75.8-101.8 7.6-67.4 18.7-59.1 74.4-104.9 55.8-45.8 23.1-48.8 87-145 36.7-55.3 92.9-75.1 134.1-81.9z"/>
			</g>
			<g id="&lt;Group&gt;">
				<path id="&lt;Path&gt;" class="s19" d="m1215 662.6c-4.8 2.5-9.9 8.8-15.4 15.4-4.5 5.4-9.3 11.1-15 16.5l-97.6-28.1q4.7-1.4 9.5-2.3c7.2-1.4 14.3-2.1 20.6-2.6 9.3-0.9 18.1-1.7 23.3-4.6 4.7-2.6 9.8-8.8 15.3-15.3 7.9-9.6 17.8-21.5 32.5-29.3 19.8-10.6 41-9.9 57.9-9.4 11.9 0.4 23.2 0.7 29.5-2.8 3.4-1.9 7.4-6 11.8-10.5 2.7-2.8 5.5-5.6 8.7-8.6 26.5-24.2 63.5-35.9 99-31.2 2.1 0.3 3.9 0.6 5.7 0.8 2.9 0.5 30.3 2.7 37.2 11.1 13 15.8 5.4 39.9-14.4 45q-3.4 0.9-7.1 1.4c-9.5 1.3-17.9-0.1-24.6-1.1-1.5-0.3-2.9-0.5-4.2-0.7-18.8-2.4-39.1 4-53.1 16.8-2 1.8-4.1 4-6.4 6.4q-1.1 1.1-2.2 2.2l-24.4-6.1 14.4 15.5c-3.8 3.2-8 6.2-12.7 8.9-20.1 11.1-41.6 10.5-58.9 9.9-11.8-0.4-23-0.7-29.4 2.7z"/>
				<path id="&lt;Path&gt;" class="s17" d="m1443.7 585.8c-2.2 9.7-9.3 18.1-20.1 20.9q-3.4 0.9-7.1 1.4c-9.5 1.3-17.9-0.1-24.6-1.1-1.5-0.3-2.9-0.5-4.2-0.7-18.8-2.4-39.1 4-53.1 16.8-2 1.8-4.1 4-6.4 6.4q-1.1 1.1-2.2 2.2l-24.4-6.1 14.4 15.5c-3.8 3.2-8 6.2-12.7 8.9-20.1 11.1-41.6 10.5-58.9 9.9-11.8-0.4-23-0.7-29.4 2.7-4.8 2.5-9.9 8.8-15.4 15.4-4.5 5.4-9.3 11.1-15 16.5l-35.6-10.2c15.2-15.9 44.7-43.7 69.9-47.7 35.5-5.6 45.1-12.5 116.7-46 35.2-16.5 75.9-12.8 108.1-4.8z"/>
			</g>
			<g id="&lt;Group&gt;">
				<path id="&lt;Path&gt;" class="s20" d="m1045.1 555.9c-33.4 55.7-96.5 75.6-96.5 75.6l-4.5 22.8-3.4 14-96.1-13.1c-0.2 0.2-17.8-4 19.4-57.1q0.5-0.7 1-1.4 4.7-6.6 10.6-14.4c17.4-19.6 31.3-16.3 31.3-16.3l11 2.4c16.2 16.3 26.7 7.8 26.7 7.8 10.4 3.3 15.7 3.7 15.7 3.7 19.8 5.1 69.3-41.6 69.3-41.6z"/>
			</g>
			<path id="&lt;Path&gt;" class="s1" d="m942.7 659.3q1-4.4 1.9-8.9c1.1-6 2.2-12 3.1-18q0.7-4.5 1.2-9.1 0.5-4.5 0.8-9.1c0.2-3 0.3-6 0.2-9.1 0-3-0.3-6.1-0.9-9.1 1.5 6 1.6 12.2 1.5 18.3-0.3 6.1-1 12.2-1.8 18.2q-0.7 4.6-1.6 9.1c-0.5 3-1.1 6-1.8 8.9q-1 4.5-2.1 9c-0.8 2.9-1.6 5.9-2.5 8.8q1.1-4.5 2-9z"/>
			<g id="&lt;Group&gt;">
				<path id="&lt;Path&gt;" class="s21" d="m1316.1 510.7c0 0-43.3-3.9-67.4 20.8-24.1 24.7-70.2 92.6-83.3 163.9-13.2 71.2-179.1-36.4-179.1-36.4 0 0 62.9-197.3 190.8-222.9 0 0 33.8-7.1 60.6 5 26.9 12 45 26.3 74 17.5 0 0-4.6 30.2 4.4 52.1z"/>
				<g id="&lt;Group&gt;">
					<path id="&lt;Path&gt;" class="s1" d="m1311.7 458.6c0.8-8.2 22.5-11.1 29.8-13.7 7.3-2.5 13.1-6.6 21.2-5.1 8 1.5 2.2 51.1 2.2 51.1-15.8 18.7-48.8 19.8-48.8 19.8-8.2-25.2-4.4-52.1-4.4-52.1z"/>
				</g>
				<path id="&lt;Path&gt;" class="s22" d="m1036 687.5c-28.1-14.5-49.7-28.5-49.7-28.5 0 0 62.9-197.3 190.8-222.9 0 0 33.8-7.1 60.6 5 26.9 12 45 26.3 74 17.5 0 0-1.6 10.3-1.1 23.3-20.9-4.1-54.2-6.5-89-10.3-45.6-5-136.4 36.8-185.6 215.9z"/>
				<path id="&lt;Path&gt;" class="s23" d="m1248.7 531.5c-24.1 24.7-70.2 92.6-83.3 163.9-5.7 30.7-39.9 28.1-76.9 15.3 54.3-150.4 113.2-174.6 148.2-200.4 28.7-21.2 63.3-17.7 75.1-15.6 0.9 5.4 2.2 10.9 4.3 16 0 0-43.3-3.9-67.4 20.8z"/>
			</g>
			<path id="&lt;Path&gt;" class="s24" d="m1586.4 1552.3h-237.7c-5.4 0-9.8-4.4-9.8-9.9v-709.5c0-5.4 4.4-9.8 9.8-9.8h237.7c5.4 0 9.8 4.4 9.8 9.8v709.5c0 5.5-4.4 9.9-9.8 9.9z"/>
			<path id="&lt;Path&gt;" class="s25" d="m1554.8 1119c-11.2 0-20.2-9.1-20.2-20.2v-231c0-11.2 9-20.2 20.2-20.2 11.1 0 20.2 9 20.2 20.2v231c0 11.1-9.1 20.2-20.2 20.2z"/>
			<path id="&lt;Path&gt;" class="s26" d="m1596.2 1189.1v353.3c0 5.5-4.4 9.9-9.8 9.9h-237.7c-5.4 0-9.8-4.4-9.8-9.9v-709.5c0-5.4 4.4-9.8 9.8-9.8h56.6c11.4 162.4 52.8 371.2 190.9 366z"/>
			<g id="&lt;Group&gt;">
				<path id="&lt;Path&gt;" class="s27" d="m1683.1 1081.7l-26.7 11.7c0 0 15.1 3.7 28.5 6.6 1 19.2-1 39.6-7.9 60l-25.7-5.8c0 0 12.3 11.3 20.5 19.1-18.1 40.4-57.4 79.9-133.6 108.8 0 0-36.4-125.2 23.8-216.3l27.7 14.7c0 0-8.5-16.6-16-30.5 18.5-22.2 43.8-41.4 78.3-55.2 0 0 23.9 37.3 31.1 86.9z"/>
				<path id="&lt;Path&gt;" class="s28" d="m1538.2 1282.1c0 0 33.7-186.9 113.8-287.3 0 0 23.9 37.3 31.1 86.9l-26.7 11.7c0 0 15.1 3.7 28.5 6.6 1 19.2-1 39.6-7.9 60l-25.7-5.8c0 0 12.3 11.3 20.5 19.1-18.1 40.4-57.4 79.9-133.6 108.8z"/>
			</g>
			<g id="&lt;Group&gt;">
				<path id="&lt;Path&gt;" class="s29" d="m1911.6 1265.2l-61-7.1c0 0 23.6 22.8 44.7 42.4-18.6 35.8-43.9 70.8-78.2 100.5l-40.5-38c0 0 10.3 33.8 16.9 56.6-76 54.2-189.4 84.1-358.6 55.6 0 0 67.1-266.4 273.4-367.8l34.7 56.3c0 0 2.3-39.4 3.6-72.6 57.1-20.5 123.6-28.5 200.8-16.9 0 0 3.9 93.3-35.8 191z"/>
				<path id="&lt;Path&gt;" class="s30" d="m1434.9 1475.2c0 0 260.1-303.8 512.5-401 0 0 3.9 93.3-35.8 191l-61-7.1c0 0 23.6 22.8 44.7 42.4-18.6 35.8-43.9 70.8-78.2 100.5l-40.5-38c0 0 10.3 33.8 16.9 56.6-76 54.2-189.4 84.1-358.6 55.6z"/>
			</g>
			<g id="&lt;Group&gt;">
				<path id="&lt;Path&gt;" class="s31" d="m1996.8 1258.3c-6 9.8-22.1 15.2-34 14.3-8.9-0.7-27.5-1.1-36.3-1.2l-0.2 0.6c19.3 13.7 43.6 11.1 52.7 23 10.1 13.2 10.9 33.6-21.2 28.7-25-3.8-33.7-36.1-36.4-50.2-31.6-8.9-59.3-11.2-80.7-10.8 19.2 13.1 42.9 10.7 51.9 22.4 10.1 13.2 10.9 33.6-21.2 28.7-25.6-3.9-34.1-37.4-36.5-51-25.2 1.1-40.3 5.5-40.5 5.6-17.5 5.1-33.8 11.1-49 17.6 21 11.9 45.4 5.9 56.1 16.8 11.8 11.7 15.1 31.9-17.4 31.1-25.9-0.6-38.6-33.2-42.7-46.2-27.2 12.1-50.8 26-71 40.4 6.9-1.2 19.2-4.2 31.4-11.6 18.3-11.2 32.3-12.3 41.8 4.1 9.3 16.2-15.9 56.3-76.6 10-25.8 18.9-46 38.6-61.2 56 9.7-5 23.5-13 34.5-23 18.9-17.3 37.2-4 39.3 10.7 2 14.2-25.7 37.5-80.2 19.7-34.4 41.7-47.7 76.6-47.8 77l-5.7-2.1c0.6-1.6 14.4-38.3 51.9-82.4q0.1-0.1 0.3-0.3c-6-12-32.2-68.1 0.4-82.5 8.3-3.6 18.3-1.3 23.4 6.3q0.3 0.6 0.7 1.3c6 10.4 3.2 28.2-3.1 39-4 6.9-11.1 20.4-15.7 29.3 15.3-17.1 35.2-36.2 60.4-54.5-3.8-15.1-14-65.5 14.9-78.3 5.1-2.2 10.9-2.2 15.9 0.4 5.8 2.9 12.4 9 10.6 21.3-2.6 18.7-28.4 36.6-37.5 53.8 20.6-14.6 44.7-28.7 72.5-40.9-0.3-13.9 1.6-48.1 25.8-56.9 30.5-11.1 33.7 9.1 26.4 24-6.1 12.4-27.2 15.3-43.2 29.1 13.5-5.5 27.8-10.6 43-15 0.8-0.2 8.3-2.5 21.2-4.2 1.3-12.5 7.4-48.9 33.7-54.4 31.7-6.8 32.1 13.7 22.8 27.4-8.6 12.5-33.4 11.2-51.9 26.4 14.2-1.5 33.5-2.2 56.8 0.4 2.9-12.2 12.4-41.6 35.5-43.7 29.2-2.7 27.4 15.6 17.5 26.9-8.7 10.1-29.9 6.7-47.8 17.4 13.4 1.8 28 4.7 43.6 9.1 9.6-13.6 47.2-62.8 73.6-28.5 0 0 5.2 9-0.8 18.9z"/>
			</g>
			<g id="&lt;Group&gt;">
				<g id="&lt;Group&gt;">
					<path id="&lt;Path&gt;" class="s32" d="m1809.2 1528.9l-33-24c0 0 6.2 20.8 12 39.1-22.4 14.6-48.4 26.6-78 32.6l-11-35.2c0 0-5.1 22.9-8.7 38.2-61.6 6.5-136.9-13.1-225.4-84.8 0 0 125.7-132.1 278-123.4l1.7 43.8c0 0 14.2-22 25.7-40.7 39.8 6.7 80.8 23.8 121.6 55.7 0 0-28.1 55.2-82.9 98.7z"/>
					<path id="&lt;Path&gt;" class="s33" d="m1465.1 1494.8c0 0 249.5-90.8 427-64.6 0 0-28.1 55.2-82.9 98.7l-33-24c0 0 6.2 20.8 12 39.1-22.4 14.6-48.4 26.6-78 32.6l-11-35.2c0 0-5.1 22.9-8.7 38.2-61.6 6.5-136.9-13.1-225.4-84.8z"/>
				</g>
			</g>
			<g id="&lt;Group&gt;">
				<path id="&lt;Path&gt;" class="s34" d="m1536.5 712.2v6.8c0 2-1.6 3.6-3.6 3.6h-130.7c-2 0-3.6-1.6-3.6-3.6v-6.8c0-6 4.8-10.8 10.8-10.8h116.3c6 0 10.8 4.8 10.8 10.8z"/>
			</g>
			<path id="&lt;Path&gt;" class="s35" d="m1596.2 742.2v47.8c0 10.8-8.7 19.6-19.5 19.6h-218.3c-10.8 0-19.5-8.8-19.5-19.6v-47.8c0-10.8 8.7-19.6 19.5-19.6h218.3c10.8 0 19.5 8.8 19.5 19.6z"/>
			<path id="&lt;Path&gt;" class="s12" d="m1297.1 670l54.8 889.8c0.8 12.7-9.3 23.4-22 23.4h-862.4c-12.6 0-22.7-10.7-21.9-23.4l54.8-889.8c0.7-11.6 10.3-20.7 22-20.7h752.7c11.6 0 21.3 9.1 22 20.7z"/>
			<g id="&lt;Group&gt;">
				<g id="&lt;Group&gt;">
					<g id="&lt;Group&gt;" style="opacity: .8">
						<g id="&lt;Group&gt;">
							<path id="&lt;Compound Path&gt;" class="s36" d="m1655.3 1247.9v4.7c0 5.6 2.1 10.8 6.1 14.8l8.7 8.7c7.5 7.5 11.6 17.4 11.6 27.9v226.8c0 26.3-21.3 47.6-47.6 47.6h-100.9c-26.2 0-47.5-21.3-47.5-47.6v-226.8c0-10.5 4.1-20.4 11.5-27.9l8.8-8.7c3.9-4 6.1-9.2 6.1-14.8v-4.7z"/>
						</g>
					</g>
					<g id="&lt;Group&gt;">
						<path id="&lt;Path&gt;" class="s37" d="m1671.1 1334.7v185c0 24.6-19.6 44.5-43.7 44.5h-31.6-23.7-31.5c-24.2 0-43.7-19.9-43.7-44.5v-186.5z"/>
						<path id="&lt;Path&gt;" class="s38" d="m1510.9 1319.6c18.3-0.6 61.9 13.5 79.3 14.1 17.4 0.7 36.1-11.8 60.4-9.8 17.1 1.4 20.3 7.4 20.6 10.8 0.2 1.4-0.5 2.7-1.7 3.4-3.2 1.8-11.2 5.1-27.1 4.2-21.7-1.4-55.4 15.7-73.8 17.3-17 1.6-49.9-1.7-67.8-18.4-3.8-3.5-5.3-9.1-3.4-13.9 1.5-3.8 5.2-7.4 13.5-7.7z"/>
					</g>
					<g id="&lt;Group&gt;">
						<path id="&lt;Compound Path&gt;" fill-rule="evenodd" class="s36" d="m1480.5 1529.7v-224.5c0-12.2 4.7-23.7 13.3-32.3l8.6-8.6c2.7-2.7 4.2-6.3 4.2-10.1v-11.1h154.7v11.1c0 3.8 1.5 7.4 4.2 10.1l8.6 8.6c8.7 8.6 13.4 20.1 13.4 32.3v224.5c0 29.5-24 53.5-53.5 53.5h-100c-29.5 0-53.5-24-53.5-53.5zm32.6-280.1v4.6c0 5.5-2.2 10.8-6.1 14.7l-8.6 8.6c-7.4 7.4-11.5 17.2-11.5 27.7v224.5c0 25.9 21.1 47 47.1 47h100c25.9 0 47-21.1 47-47v-224.5c0-10.5-4-20.3-11.4-27.7l-8.7-8.6c-3.9-3.9-6-9.2-6-14.7v-4.6z"/>
					</g>
					<g id="&lt;Group&gt;" style="opacity: .5">
						<path id="&lt;Path&gt;" class="s36" d="m1647.8 1430.2c0.3-43.2 0.7-118.2 0-126.2-0.3-3.8-5.3-7.1-9.7-9.1-2.5-1.2-3.8-4.1-3-6.7v-0.1c1-3.3 4.6-5 7.8-3.5 6.3 2.9 15.3 8.7 16.2 18.4 0.8 9.7 0.2 102.9 0 127.3 0 3.1-2.6 5.6-5.7 5.6-3.1 0-5.6-2.6-5.6-5.7z"/>
					</g>
					<g id="&lt;Group&gt;">
						<g id="&lt;Group&gt;">
							<path id="&lt;Path&gt;" class="s12" d="m1629.3 1517.4c6.3 0 11.4 5.1 11.4 11.5 0 6.3-5.1 11.4-11.4 11.4-6.4 0-11.5-5.1-11.5-11.4 0-6.4 5.1-11.5 11.5-11.5z"/>
						</g>
						<g id="&lt;Group&gt;">
							<path id="&lt;Path&gt;" class="s12" d="m1613.2 1488.9c3.3 0 6 2.7 6 6 0 3.3-2.7 6-6 6-3.3 0-6-2.7-6-6 0-3.3 2.7-6 6-6z"/>
						</g>
						<g id="&lt;Group&gt;">
							<path id="&lt;Path&gt;" class="s12" d="m1572.9 1526.2c3.3 0 6 2.7 6 6 0 3.3-2.7 6-6 6-3.3 0-6-2.7-6-6 0-3.3 2.7-6 6-6z"/>
						</g>
						<g id="&lt;Group&gt;">
							<path id="&lt;Path&gt;" class="s12" d="m1628.2 1491.5c0.8 0 1.5 0.7 1.5 1.5 0 0.9-0.7 1.5-1.5 1.5-0.9 0-1.6-0.6-1.6-1.5 0-0.8 0.7-1.5 1.6-1.5z"/>
						</g>
						<g id="&lt;Group&gt;">
							<path id="&lt;Path&gt;" class="s12" d="m1542.3 1507.3c1.1 0 2 0.9 2 2 0 1.1-0.9 2-2 2-1.1 0-2-0.9-2-2 0-1.1 0.9-2 2-2z"/>
						</g>
						<g id="&lt;Group&gt;">
							<path id="&lt;Path&gt;" class="s12" d="m1560.8 1472.1c2 0 3.6 1.6 3.6 3.6 0 2-1.6 3.6-3.6 3.6-2 0-3.6-1.6-3.6-3.6 0-2 1.6-3.6 3.6-3.6z"/>
						</g>
						<g id="&lt;Group&gt;">
							<path id="&lt;Path&gt;" class="s12" d="m1628.2 1448.7c1.9 0 3.5 1.6 3.5 3.6 0 2-1.6 3.6-3.5 3.6-2 0-3.6-1.6-3.6-3.6 0-2 1.6-3.6 3.6-3.6z"/>
						</g>
						<g id="&lt;Group&gt;">
							<path id="&lt;Path&gt;" class="s12" d="m1618.4 1458.2c0.7 0 1.3 0.6 1.3 1.3 0 0.8-0.6 1.4-1.3 1.4-0.8 0-1.4-0.6-1.4-1.4 0-0.7 0.6-1.3 1.4-1.3z"/>
						</g>
						<g id="&lt;Group&gt;">
							<path id="&lt;Path&gt;" class="s12" d="m1635.3 1463.8c2.2 0 3.9 1.8 3.9 3.9 0 2.1-1.7 3.8-3.9 3.8-2.1 0-3.8-1.7-3.8-3.8 0-2.1 1.7-3.9 3.8-3.9z"/>
						</g>
						<g id="&lt;Group&gt;">
							<path id="&lt;Path&gt;" class="s12" d="m1523.6 1494.5c6.3 0 11.4 5.2 11.4 11.5 0 6.3-5.1 11.4-11.4 11.4-6.3 0-11.4-5.1-11.4-11.4 0-6.3 5.1-11.5 11.4-11.5z"/>
						</g>
						<g id="&lt;Group&gt;">
							<path id="&lt;Path&gt;" class="s12" d="m1543 1481.7c2.7 0 4.9 2.2 4.9 4.9 0 2.8-2.2 5-4.9 5-2.8 0-5-2.2-5-5 0-2.7 2.2-4.9 5-4.9z"/>
						</g>
						<g id="&lt;Group&gt;">
							<path id="&lt;Path&gt;" class="s12" d="m1520.2 1452.9c4.5 0 8.1 3.6 8.1 8.1 0 4.5-3.6 8.1-8.1 8.1-4.4 0-8-3.6-8-8.1 0-4.5 3.6-8.1 8-8.1z"/>
						</g>
					</g>
				</g>
				<g id="&lt;Group&gt;">
					<path id="&lt;Path&gt;" class="s39" d="m1491.3 1237.8v-4.7c0-6.6 5.3-11.8 11.8-11.8h163c6.5 0 11.8 5.2 11.8 11.8v4.7c0 6.5-5.3 11.8-11.8 11.8h-163c-6.5 0-11.8-5.3-11.8-11.8z"/>
					<path id="&lt;Path&gt;" class="s40" d="m1501 1241.6h167.3c5.3 0 9.6-4.3 9.6-9.6v7.9c0 5.4-4.3 9.7-9.6 9.7h-167.3c-5.4 0-9.7-4.3-9.7-9.7v-7.9c0 5.3 4.3 9.6 9.7 9.6z"/>
					<g id="&lt;Group&gt;" style="opacity: .3">
						<path id="&lt;Path&gt;" class="s41" d="m1665.6 1221.3h2.7v28.3h-2.7z"/>
						<path id="&lt;Path&gt;" class="s41" d="m1650.6 1221.3h2.7v28.3h-2.7z"/>
						<path id="&lt;Path&gt;" class="s41" d="m1635.6 1221.3h2.7v28.3h-2.7z"/>
						<path id="&lt;Path&gt;" class="s41" d="m1620.6 1221.3h2.7v28.3h-2.7z"/>
						<path id="&lt;Path&gt;" class="s41" d="m1605.6 1221.3h2.7v28.3h-2.7z"/>
						<path id="&lt;Path&gt;" class="s41" d="m1590.6 1221.3h2.7v28.3h-2.7z"/>
						<path id="&lt;Path&gt;" class="s41" d="m1575.6 1221.3h2.7v28.3h-2.7z"/>
						<path id="&lt;Path&gt;" class="s41" d="m1560.7 1221.3h2.6v28.3h-2.6z"/>
						<path id="&lt;Path&gt;" class="s41" d="m1545.7 1221.3h2.6v28.3h-2.6z"/>
						<path id="&lt;Path&gt;" class="s42" d="m1530.7 1221.3h2.6v28.3h-2.6z"/>
						<path id="&lt;Path&gt;" class="s42" d="m1515.7 1221.3h2.6v28.3h-2.6z"/>
						<path id="&lt;Path&gt;" class="s42" d="m1500.7 1221.3h2.6v28.3h-2.6z"/>
					</g>
				</g>
			</g>
			<path id="&lt;Path&gt;" class="s12" d="m593.2 649.3c0 0 9.9-240.6 214.8-321.7 205-81.1 340.9 116.2 365 321.7l-60.2 25.8-9.9-25.8c0 0 4.4-316.2-204.2-310.7-206.1 5.4-246.3 315.7-246.3 315.7 0 0-32.9 83.3-35.1 75.6-2.2-7.7-24.1-80.6-24.1-80.6z"/>
			<path id="&lt;Path&gt;" class="s43" d="m1351.9 1559.8c0.8 12.7-9.3 23.4-22 23.4h-862.4c-12.6 0-22.7-10.7-21.9-23.4l54.8-889.8c0.7-11.6 10.3-20.7 22-20.7h156.6c-15.7 193.9-12.3 810.5 665.8 794.7z"/>
			<g id="&lt;Group&gt;">
				<g id="&lt;Group&gt;">
					<g id="&lt;Group&gt;" style="opacity: .8">
						<g id="&lt;Group&gt;">
							<path id="&lt;Compound Path&gt;" class="s36" d="m1497.2 1138.8v6.2c0 7.4 2.9 14.4 8.1 19.7l11.6 11.5c9.9 9.9 15.3 23.1 15.3 37v300.6c0 34.8-28.3 63-63 63h-133.8c-34.7 0-63-28.2-63-63v-300.6c0-13.9 5.5-27.1 15.4-37l11.5-11.5c5.3-5.3 8.1-12.3 8.1-19.7v-6.2z"/>
						</g>
					</g>
					<g id="&lt;Group&gt;">
						<path id="&lt;Path&gt;" class="s44" d="m1517.3 1251.9v247.2c0 32.6-25.9 59-57.9 59h-41.7-31.5-41.8c-32 0-57.9-26.4-57.9-59v-245.2z"/>
						<g id="&lt;Group&gt;">
							<path id="&lt;Path&gt;" class="s45" d="m1516.6 1244.1c2.6 6.4 0.6 13.7-4.5 18.4-23.7 22.1-67.2 26.4-89.8 24.4-24.3-2.1-69.1-24.7-97.8-23-21.1 1.3-31.7-3.1-35.9-5.5-1.6-0.9-2.5-2.7-2.3-4.6 0.5-4.5 4.6-12.4 27.4-14.2 32.1-2.7 56.9 13.9 79.9 13 23.1-0.9 80.9-19.6 105.2-18.7 11 0.4 15.8 5.1 17.8 10.2z"/>
						</g>
					</g>
					<g id="&lt;Group&gt;">
						<path id="&lt;Compound Path&gt;" fill-rule="evenodd" class="s36" d="m1468.2 1583.2h-132.5c-39.1 0-71-31.8-71-70.9v-297.6c0-16.1 6.3-31.3 17.7-42.7l11.5-11.4c3.5-3.6 5.5-8.3 5.5-13.4v-14.7h205v14.7c0 5.1 2 9.8 5.6 13.4l11.4 11.4c11.4 11.4 17.7 26.6 17.7 42.7v297.6c0 39.1-31.8 70.9-70.9 70.9zm-160.2-442.1v6.1c0 7.3-2.9 14.2-8.1 19.4l-11.4 11.5c-9.8 9.8-15.2 22.8-15.2 36.6v297.6c0 34.4 28 62.3 62.4 62.3h132.5c34.4 0 62.3-27.9 62.3-62.3v-297.6c0-13.8-5.3-26.8-15.1-36.6l-11.5-11.5c-5.2-5.2-8-12.1-8-19.4v-6.1z"/>
					</g>
					<g id="&lt;Group&gt;" style="opacity: .5">
						<path id="&lt;Path&gt;" class="s36" d="m1309.9 1388c-4.2 0-7.5-3.3-7.6-7.4-0.2-32.4-1-155.8 0.1-168.7 1.2-12.9 13.1-20.6 21.5-24.5 4.1-1.9 9 0.4 10.3 4.8 1 3.5-0.7 7.3-4.1 8.9-5.8 2.7-12.3 7.1-12.8 12.1-0.9 10.6-0.4 110 0 167.2 0 4.2-3.3 7.6-7.4 7.6z"/>
					</g>
					<g id="&lt;Group&gt;">
						<g id="&lt;Group&gt;">
							<path id="&lt;Path&gt;" class="s12" d="m1357.1 1511.2c0 8.4-6.8 15.2-15.2 15.2-8.4 0-15.2-6.8-15.2-15.2 0-8.4 6.8-15.2 15.2-15.2 8.4 0 15.2 6.8 15.2 15.2z"/>
						</g>
						<g id="&lt;Group&gt;">
							<path id="&lt;Path&gt;" class="s12" d="m1371.1 1466.1c0 4.4-3.6 8-7.9 8-4.4 0-8-3.6-8-8 0-4.3 3.6-7.9 8-7.9 4.3 0 7.9 3.6 7.9 7.9z"/>
						</g>
						<g id="&lt;Group&gt;">
							<path id="&lt;Path&gt;" class="s12" d="m1424.6 1515.6c0 4.4-3.6 8-8 8-4.3 0-7.9-3.6-7.9-8 0-4.4 3.6-7.9 7.9-7.9 4.4 0 8 3.5 8 7.9z"/>
						</g>
						<g id="&lt;Group&gt;">
							<path id="&lt;Path&gt;" class="s12" d="m1345.4 1463.7c0 1.1-0.9 2-2 2-1.1 0-2.1-0.9-2.1-2 0-1.1 1-2.1 2.1-2.1 1.1 0 2 1 2 2.1z"/>
						</g>
						<g id="&lt;Group&gt;">
							<path id="&lt;Path&gt;" class="s12" d="m1459.8 1485.2c0 1.5-1.2 2.7-2.7 2.7-1.4 0-2.6-1.2-2.6-2.7 0-1.4 1.2-2.6 2.6-2.6 1.5 0 2.7 1.2 2.7 2.6z"/>
						</g>
						<g id="&lt;Group&gt;">
							<path id="&lt;Path&gt;" class="s12" d="m1437.4 1440.8c0 2.6-2.2 4.7-4.8 4.7-2.6 0-4.7-2.1-4.7-4.7 0-2.7 2.1-4.8 4.7-4.8 2.6 0 4.8 2.1 4.8 4.8z"/>
						</g>
						<g id="&lt;Group&gt;">
							<path id="&lt;Path&gt;" class="s12" d="m1348.1 1409.8c0 2.6-2.1 4.7-4.7 4.7-2.7 0-4.8-2.1-4.8-4.7 0-2.7 2.1-4.8 4.8-4.8 2.6 0 4.7 2.1 4.7 4.8z"/>
						</g>
						<g id="&lt;Group&gt;">
							<path id="&lt;Path&gt;" class="s12" d="m1358.2 1419.3c0 1-0.9 1.8-1.9 1.8-1 0-1.8-0.8-1.8-1.8 0-1 0.8-1.8 1.8-1.8 1 0 1.9 0.8 1.9 1.8z"/>
						</g>
						<g id="&lt;Group&gt;">
							<path id="&lt;Path&gt;" class="s12" d="m1339 1430.1c0 2.8-2.3 5.1-5.1 5.1-2.8 0-5.1-2.3-5.1-5.1 0-2.8 2.3-5.1 5.1-5.1 2.8 0 5.1 2.3 5.1 5.1z"/>
						</g>
						<g id="&lt;Group&gt;">
							<path id="&lt;Path&gt;" class="s12" d="m1497.1 1480.8c0 8.4-6.8 15.2-15.1 15.2-8.4 0-15.2-6.8-15.2-15.2 0-8.3 6.8-15.1 15.2-15.1 8.3 0 15.1 6.8 15.1 15.1z"/>
						</g>
						<g id="&lt;Group&gt;">
							<path id="&lt;Path&gt;" class="s12" d="m1462.9 1455.2c0 3.7-3 6.7-6.6 6.7-3.7 0-6.6-3-6.6-6.7 0-3.6 2.9-6.6 6.6-6.6 3.6 0 6.6 3 6.6 6.6z"/>
						</g>
						<g id="&lt;Group&gt;">
							<path id="&lt;Path&gt;" class="s12" d="m1497.1 1421.2c0 6-4.8 10.7-10.7 10.7-5.9 0-10.7-4.7-10.7-10.7 0-5.9 4.8-10.6 10.7-10.6 5.9 0 10.7 4.7 10.7 10.6z"/>
						</g>
					</g>
				</g>
				<g id="&lt;Group&gt;">
					<g id="&lt;Group&gt;">
						<path id="&lt;Path&gt;" class="s46" d="m1509.6 1141.1h-217.1c-8.3 0-15.1-6.8-15.1-15.1v-7.4c0-8.3 6.8-15.1 15.1-15.1h217.1c8.4 0 15.1 6.8 15.1 15.1v7.4c0 8.3-6.7 15.1-15.1 15.1z"/>
					</g>
					<path id="&lt;Path&gt;" class="s47" d="m1524.7 1117.7v10.6c0 7.1-5.7 12.8-12.8 12.8h-221.7c-7 0-12.8-5.7-12.8-12.8v-10.6c0 7.1 5.8 12.8 12.8 12.8h221.7c7.1 0 12.8-5.7 12.8-12.8z"/>
					<g id="&lt;Group&gt;" style="opacity: .3">
						<path id="&lt;Path&gt;" class="s48" d="m1293.7 1141.1h-3.5v-37.6h3.5z"/>
						<path id="&lt;Path&gt;" class="s48" d="m1313.6 1141.1h-3.5v-37.6h3.5z"/>
						<path id="&lt;Path&gt;" class="s48" d="m1333.5 1141.1h-3.5v-37.6h3.5z"/>
						<path id="&lt;Path&gt;" class="s48" d="m1353.3 1141.1h-3.5v-37.6h3.5z"/>
						<path id="&lt;Path&gt;" class="s48" d="m1373.2 1141.1h-3.5v-37.6h3.5z"/>
						<path id="&lt;Path&gt;" class="s48" d="m1393.1 1141.1h-3.5v-37.6h3.5z"/>
						<path id="&lt;Path&gt;" class="s48" d="m1413 1141.1h-3.5v-37.6h3.5z"/>
						<path id="&lt;Path&gt;" class="s48" d="m1432.8 1141.1h-3.5v-37.6h3.5z"/>
						<path id="&lt;Path&gt;" class="s48" d="m1452.7 1141.1h-3.5v-37.6h3.5z"/>
						<path id="&lt;Path&gt;" class="s48" d="m1472.6 1141.1h-3.5v-37.6h3.5z"/>
						<path id="&lt;Path&gt;" class="s48" d="m1492.5 1141.1h-3.5v-37.6h3.5z"/>
						<path id="&lt;Path&gt;" class="s48" d="m1512.3 1141.1h-3.5v-37.6h3.5z"/>
					</g>
				</g>
			</g>
			<g id="&lt;Group&gt;">
				<g id="&lt;Group&gt;">
					<path id="&lt;Path&gt;" class="s49" d="m1008.8 1083.4l107.3-50.4 54.8 99.7 3.8 23.5-26.8 63-79.4-15.1z"/>
					<g id="&lt;Group&gt;">
						<path id="&lt;Path&gt;" class="s50" d="m970.5 1196.2h135.9c23.7 0 46.1-12.3 57.4-33.1 4.7-8.5 7.7-18.7 7.1-30.4 0 0 50.4 152.2-67.9 171.9h-132.5v22.5l-73.4-71.2 73.9-79.4z"/>
					</g>
				</g>
				<g id="&lt;Group&gt;">
					<path id="&lt;Path&gt;" class="s51" d="m843.2 1199.1l-6.7 118.4-113.7 0.8-22.5-7.8-42.7-53.5 51-62.7z"/>
					<g id="&lt;Group&gt;">
						<path id="&lt;Path&gt;" class="s52" d="m762.1 1111.8l-64.5 119.6c-11.3 20.8-11.1 46.4 1.8 66.3 5.3 8.1 12.8 15.6 23.4 20.6 0 0-157.9-28-119-141.4l62.9-116.6-19.7-10.7 97.5-30.7 34.7 102.8z"/>
					</g>
				</g>
				<g id="&lt;Group&gt;">
					<path id="&lt;Path&gt;" class="s53" d="m836.5 1019.6l-101.9-60.7 51.9-101.2 17.4-16.3 67.2-13.1 31.9 74.2z"/>
					<g id="&lt;Group&gt;">
						<path id="&lt;Path&gt;" class="s54" d="m951.4 988.1l-76.1-112.5c-13.3-19.6-36.1-31.3-59.7-29-9.6 0.9-19.7 4.1-29.1 11.1 0 0 97.9-127 180.5-40.1l74.2 109.8 18.6-12.6-17.8 100.7-107.2-16.8z"/>
					</g>
				</g>
			</g>
			<path id="&lt;Path&gt;" class="s55" d="m1063.9 118.9c2.8-11.9 13.5-20.8 26.3-20.8q3.5 0 6.8 0.8c6.3-13.5 20-22.8 35.8-22.8 4.1 0 8.1 0.6 11.8 1.8 8.6-14.2 24.1-23.6 41.9-23.6 21.1 0 39 13.3 45.9 32.1 4.8-2.7 10.3-4.2 16.2-4.2 18.6 0 33.6 15 33.6 33.5q-0.1 1.6-0.2 3.2z"/>
			<path id="&lt;Path&gt;" class="s55" d="m1640.8 466.3c2.7-11.9 13.4-20.8 26.1-20.8q3.5 0 6.8 0.8c6.2-13.4 19.9-22.7 35.7-22.7 4.1 0 8 0.6 11.8 1.8 8.5-14.1 24-23.6 41.6-23.6 21.1 0 39 13.4 45.8 32.1 4.8-2.7 10.3-4.2 16.2-4.2 18.4 0 33.4 14.9 33.4 33.3q0 1.7-0.2 3.3z"/>
			<path id="&lt;Path&gt;" class="s56" d="m18.5 520.1c2.8-11.9 13.4-20.8 26.2-20.8q3.5 0 6.7 0.8c6.3-13.4 20-22.7 35.8-22.7 4.1 0 8 0.6 11.7 1.8 8.6-14.1 24-23.6 41.7-23.6 21 0 39 13.4 45.7 32.1 4.9-2.7 10.4-4.2 16.3-4.2 18.4 0 33.4 14.9 33.4 33.3q0 1.7-0.2 3.3z"/>
			<path id="&lt;Path&gt;" class="s55" d="m1553.6 334.2c1.1-4.6 5.3-8.1 10.3-8.1q1.3 0 2.6 0.3c2.5-5.2 7.8-8.9 14-8.9q2.5 0 4.6 0.7c3.4-5.5 9.5-9.2 16.4-9.2 8.2 0 15.3 5.2 17.9 12.5 1.9-1 4.1-1.6 6.4-1.6 7.2 0 13.1 5.8 13.1 13.1q0 0.6-0.1 1.2z"/>
			<path id="&lt;Path&gt;" class="s57" d="m214.8 385.3c1-4.6 5.2-8.1 10.2-8.1q1.4 0 2.7 0.3c2.4-5.2 7.8-8.9 14-8.9q2.4 0 4.6 0.7c3.3-5.5 9.4-9.2 16.3-9.2 8.3 0 15.3 5.2 18 12.5 1.8-1 4-1.6 6.3-1.6 7.3 0 13.1 5.8 13.1 13.1q0 0.6 0 1.2z"/>
			<path id="&lt;Path&gt;" class="s55" d="m909.9 224.6c1.5-6.6 7.4-11.6 14.5-11.6q2 0 3.8 0.5c3.5-7.5 11.1-12.7 19.9-12.7 2.3 0 4.5 0.4 6.5 1 4.8-7.8 13.4-13.1 23.3-13.1 11.7 0 21.6 7.5 25.4 17.9 2.7-1.5 5.8-2.4 9.1-2.4 10.2 0 18.5 8.3 18.5 18.6q0 0.9 0 1.8z"/>
			<path id="&lt;Path&gt;" class="s8" d="m1046 546.2c-3.8-1.9-10.1-1.6-10.1-1.6 0 0-0.4-0.1-0.9-0.2l-3.3-3.8q0 0 0-0.4 0.3 0 0.6 0c13.3-1.1 17.5 7.9 13.7 6z"/>
			<path id="&lt;Path&gt;" class="s1" d="m900.3 591.4q-2.6 5.5-5.2 10.9-2.7 5.4-5.4 10.8l-5.4 10.8-2.7 5.4c-1 1.8-1.9 3.6-2.7 5.4 1.4-3.8 3.1-7.5 4.7-11.1 1.7-3.7 3.5-7.3 5.3-10.9q2.7-5.4 5.5-10.7 2.9-5.4 5.9-10.6z"/>
			<g id="&lt;Group&gt;">
				<path id="&lt;Path&gt;" class="s1" d="m871.3 635c5-0.7 10.1-0.9 15.2-0.8q7.7 0.1 15.3 1.4c5 0.8 10 2 14.8 3.6l3.7 1.3c0.3 0.1 0.6 0.2 0.9 0.3l0.8 0.4 1.7 0.8q1.8 0.9 3.4 1.8 1.7 0.9 3.3 1.9c-2.2-1.2-4.5-2.2-6.8-3.2l-1.8-0.8-0.9-0.4c-0.2-0.1-0.6-0.2-0.9-0.3l-3.6-1.1q-7.3-2.2-14.8-3.4c-5-0.9-10-1.4-15.1-1.6-2.5-0.1-5-0.2-7.6-0.2q-3.8 0-7.6 0.3z"/>
			</g>
			<g id="&lt;Group&gt;">
				<path id="&lt;Path&gt;" class="s8" d="m940.4 660.1c-2.5-0.4 1.9-6.5-1.4-6.8-2.3-0.1-0.5 6.2-2.9 6.6-2.4 0.5 0.4-6.6-1.6-6.7-3.8-0.4-2.1 7.4-4.5 6.9-2.1-0.4 2-6.7-1.2-7.1-1.7-0.2-1.1 7.1-4.4 6.9-2.7-0.1 4.1-7.8-2.6-8.6-1.2-0.1-2-0.2-2.7-0.2-0.3 0-0.7-0.3-0.8-0.6-0.3-1-0.4-3.4 3.9-4.3q0.4-0.1 0.8-0.2c5.4-0.8 12.1-0.7 17.4 2.4 3.7 2.2 1.5 12 0 11.7z"/>
			</g>
			<g id="&lt;Group&gt;">
				<path id="&lt;Path&gt;" class="s9" d="m971.2 537.8c2.6 1.2 3.4 4.7 2 7.8-1.4 3.2-4.7 4.8-7.2 3.7-2.5-1.2-3.4-4.7-1.9-7.9 1.4-3.1 4.6-4.7 7.1-3.6z"/>
			</g>
			<g id="&lt;Group&gt;">
				<path id="&lt;Path&gt;" class="s8" d="m958.6 564.9q-0.5 0.4-1 0.8c-4.4 3.9-10.3 6.2-16.6 6.1-12.9-0.4-23.2-11-24-24.2q-0.5 0.5-1.2 0.8c-3.2 1.2-7.2-1-8.8-5.1-1.6-4-0.3-8.3 3-9.6 1.7-0.7 3.6-0.4 5.2 0.6 0.7-15.4 14.3-27.3 30-25.5 11.7 1.4 21.3 10.5 23.2 22.1 0.7 3.6 0.5 7.1-0.2 10.3q-0.3 1.2-0.4 2.5c-0.6 3.8-1.5 8.1-3.3 12.2q-0.9 2.3-2.2 4.3c-1 1.7-2.3 3.3-3.7 4.7z"/>
			</g>
			<path id="&lt;Path&gt;" class="s58" d="m939.2 537.7c-0.1 1.3-1.1 2.3-2.4 2.2-1.3 0-2.4-1.1-2.3-2.4 0-1.2 1.1-2.3 2.4-2.2 1.3 0 2.3 1.1 2.3 2.4z"/>
			<path id="&lt;Path&gt;" class="s58" d="m959.2 539.5c0 1.3-1.1 2.3-2.4 2.3-1.3 0-2.3-1.1-2.2-2.4 0-1.3 1.1-2.3 2.4-2.3 1.2 0.1 2.3 1.1 2.2 2.4z"/>
			<g id="&lt;Group&gt;">
				<path id="&lt;Path&gt;" class="s1" d="m942.1 533.1c-1.1-0.5-2.2-0.9-3.3-1.2q-1.6-0.4-3.3-0.4c-1 0-2.1 0.2-3.2 0.6l-0.4 0.1q-0.2 0-0.4 0.1l-0.8 0.3c-0.5 0.3-1 0.6-1.6 0.8q0.5-0.8 1.2-1.5c0.4-0.3 0.9-0.8 1.5-1.1 1.1-0.6 2.4-1 3.7-1 1.3 0 2.6 0.3 3.8 0.9 1.1 0.5 2.1 1.3 2.8 2.4z"/>
			</g>
			<g id="&lt;Group&gt;">
				<path id="&lt;Path&gt;" class="s1" d="m951.5 533.8c0.9-0.9 2-1.5 3.2-1.9 1.2-0.4 2.6-0.5 3.8-0.3 1.3 0.2 2.6 0.7 3.6 1.6 0.5 0.3 0.9 0.9 1.3 1.3q0.6 0.8 1 1.6c-0.6-0.3-1-0.7-1.6-1l-0.7-0.4q-0.2-0.1-0.4-0.2l-0.4-0.2c-0.9-0.5-2-0.8-3-1q-1.6-0.3-3.3-0.1c-1.1 0.1-2.3 0.3-3.5 0.6z"/>
			</g>
			<path id="&lt;Path&gt;" class="s9" d="m946.9 535.7q1.2 1.9 2.2 4 0.9 2 1.6 4.2c0.2 0.7 0.4 1.4 0.5 2.3q0 0.3 0 0.6 0 0.2-0.1 0.3c0 0.1 0 0.3-0.1 0.4q-0.1 0.1-0.2 0.2l-0.1 0.1q-0.1 0.1-0.2 0.2-0.2 0.2-0.5 0.3c-0.6 0.5-1.3 0.8-2.1 1q-1 0.4-2.1 0.7c1.3-0.7 2.7-1.4 3.8-2.3q0.2-0.1 0.4-0.3l0.2-0.2 0.1-0.1q0 0 0 0c0.1-0.2 0.1-0.5 0-0.9-0.1-0.7-0.2-1.4-0.5-2.1-0.4-1.4-0.9-2.8-1.4-4.1q-0.8-2.1-1.5-4.3z"/>
			<g id="&lt;Group&gt;">
				<path id="&lt;Path&gt;" class="s1" d="m925.6 501.1c0 0 8.1-6 25.2-3.5 17.2 2.5 19.7 12.1 19.6 25.4l-1.6 14.5c0 0-4.8-3.9-9.5-17.6 0 0-10.6 10.4-14.7 8.7-4.1-1.6 2.4-9.2 2.4-9.2 0 0-20.2 16.1-31.8 15.1 0 0-5.3-21.2 3.9-28 0 0-6.5-0.2-6.8-1.5-0.2-1.4 3.4-3.1 9.5-1.8 0 0-3.7-9.3-1.1-10.1 2.5-0.7 4.9 8 4.9 8z"/>
			</g>
			<path id="&lt;Path&gt;" class="s11" d="m952.4 555.6c-1 2.7-4.6 4.5-8.6 4-4-0.5-7-3-7.4-6z"/>
			<g id="&lt;Group&gt;">
				<path id="&lt;Path&gt;" class="s8" d="m1212.2 1568.1l-4.5-13.1 0.6-15.2 3.2-1.4 14.3 4v12.6z"/>
				<g id="&lt;Group&gt;">
					<path id="&lt;Path&gt;" class="s8" d="m1120.5 1568.1l-4.5-13.1 0.5-15.2 3.2-1.4 14.4 4v12.6z"/>
					<path id="&lt;Path&gt;" class="s12" d="m1119.3 1196.1c-18.7 12.5-72.2 4.8-72.2 4.8 0 0-33.2-23.4 11.2-27.3 44.3-4 63.2-26.4 63.2-26.4 0 0 16.4 36.3-2.2 48.9z"/>
					<path id="&lt;Path&gt;" class="s1" d="m1130.3 1274.1l27.4 84.1-20.9 187.7h-23.8l-10.1-248.3z"/>
					<path id="&lt;Path&gt;" class="s1" d="m1129.3 1278.3c0 0 37.2-4.6 54.2 17 16.9 21.6 45.2 248.7 45.2 248.7l-22.7 1.9-93-247.8z"/>
					<path id="&lt;Path&gt;" class="s59" d="m1139.2 1094.4l-33.4 12.1c-4.9-11.2 0.4-31.3 10.3-37.4 10-6.1 24.9-7.7 39.3 1.4 14.4 9 9.5 34.6 9.5 34.6z"/>
					<path id="&lt;Path&gt;" class="s8" d="m1123.9 1127.2l17.8 3.6 2.1 16.7c-9 6.8-20.4 0-20.4 0z"/>
					<path id="&lt;Path&gt;" class="s9" d="m1111.6 1104.6c1 3.1-0.3 6.3-2.8 7.1-2.6 0.8-5.5-1.1-6.6-4.2-1-3.2 0.3-6.3 2.8-7.1 2.6-0.8 5.6 1.1 6.6 4.2z"/>
					<path id="&lt;Path&gt;" class="s8" d="m1111 1122.4q-1-2.1-1.6-4.3c-1.2-4-1.6-8.2-1.7-11.9q0-1.1-0.1-2.3c-0.3-3.1 0-6.4 1-9.7 3.3-10.7 13.6-18.1 25.1-18.1 15.5 0.1 27.3 12.8 26.1 27.4 1.7-0.8 3.5-0.8 5.1 0 3 1.6 3.7 5.8 1.7 9.4-2 3.6-6.1 5.3-9.1 3.7q-0.6-0.3-1.1-0.8c-2.3 12.3-13.6 21-26.1 19.9-6.2-0.6-11.5-3.4-15.4-7.6q-0.4-0.4-0.8-0.9c-1.3-1.5-2.3-3.1-3.1-4.8z"/>
					<path id="&lt;Path&gt;" class="s58" d="m1136.9 1102.2c1.3 0.1 2.2 1.2 2.1 2.4-0.1 1.2-1.3 2.1-2.5 2-1.3-0.1-2.2-1.2-2.1-2.4 0.1-1.2 1.3-2.1 2.5-2z"/>
					<path id="&lt;Path&gt;" class="s58" d="m1119 1101.3c1.2 0.2 2.2 1.2 2 2.4-0.1 1.3-1.2 2.2-2.5 2-1.2-0.1-2.1-1.2-2-2.4 0.1-1.2 1.2-2.1 2.5-2z"/>
					<path id="&lt;Path&gt;" class="s59" d="m1135.1 1097.6c1.2-0.4 2.5-0.5 3.8-0.4 1.3 0.2 2.5 0.7 3.5 1.4 0.5 0.3 0.9 0.8 1.3 1.2q0.6 0.8 1 1.5c-0.5-0.2-1-0.6-1.5-0.8l-0.7-0.4q-0.2-0.1-0.4-0.2l-0.4-0.2c-1-0.5-2-0.7-3-0.9q-1.6-0.2-3.2 0c-1.1 0.2-2.2 0.4-3.4 0.8 0.8-0.9 1.9-1.6 3-2z"/>
					<path id="&lt;Path&gt;" class="s59" d="m1121.4 1097.8q-1.6-0.3-3.2-0.2c-1.1 0-2.1 0.2-3.1 0.6l-0.4 0.1q-0.2 0.1-0.4 0.2l-0.8 0.3c-0.5 0.2-1 0.5-1.6 0.7q0.5-0.7 1.1-1.4c0.5-0.3 0.9-0.8 1.5-1 1-0.7 2.3-1.1 3.6-1.1 1.3-0.1 2.6 0.1 3.7 0.7 1.1 0.5 2.1 1.2 2.8 2.2-1.1-0.5-2.2-0.8-3.2-1.1z"/>
					<path id="&lt;Path&gt;" class="s9" d="m1128.2 1098.8c0.4 1.6 0.4 3.2 0.3 4.8q-0.1 1.2-0.4 2.4c-0.2 0.8-0.5 1.6-1.2 2.4l-0.2 0.2-0.3 0.3c-0.1 0.1-0.2 0.2-0.3 0.3q-0.3 0.3-0.4 0.7c-0.2 0.5 0 1.1 0.3 1.7 0.8 1.2 2.2 1.9 3.7 2.4-1.6 0.1-3.4-0.3-4.7-1.7-0.6-0.7-1-1.7-0.8-2.7q0.1-0.4 0.3-0.7c0.1-0.3 0.2-0.5 0.4-0.7 0.1-0.2 0.3-0.3 0.5-0.5 0.1-0.1 0.2-0.1 0.2-0.2l0.2-0.1c0.4-0.5 0.7-1.1 0.9-1.8 0.3-0.7 0.4-1.4 0.6-2.2 0.4-1.5 0.6-3 0.9-4.6z"/>
					<path id="&lt;Path&gt;" class="s11" d="m1137.1 1116.8c-0.6 2.8-3.9 4.9-7.9 5-3.9 0-7.3-2-8.1-4.7z"/>
					<path id="&lt;Path&gt;" class="s59" d="m1127.4 1086.1c0 0 0.4 6.2 2.8 8.3-0.7 0.5-14.7-4.1-18.2-13.8-3.6-9.8 15.4-6.6 15.4-6.6 0 0 10.6-2.1 11.1-1.9 0.5 0.2 8.3 4.2 8.6 4.6 0.4 0.3 10.9 13.2 10.9 13.2l2.8 4.9 1 8.1c0 0-1.2 0-2.7 1.4-2.9-1.1-21.6-8.1-31.7-18.2z"/>
					<g id="&lt;Group&gt;">
						<path id="&lt;Path&gt;" class="s1" d="m1093.6 1569.1v-0.1c0-1.2 0.9-2.2 2.1-2.2h39.6c1.2 0 2.2 1 2.2 2.2v0.1c0 1.2-1 2.1-2.2 2.1l-39.6 0.1c-1.2 0-2.1-1-2.1-2.2z"/>
						<path id="&lt;Path&gt;" class="s60" d="m1135.5 1553.4l1.4 12.3c0.2 1.5-0.6 2.9-1.7 2.9h-38.7c-1.1 0-2-0.6-2.6-1.8-0.5-1.2-0.6-3 1.1-5.5 3.4-4.8 14.2-6 19.9-9.9q0.5-0.4 1.2-0.4h17.3c1 0 1.9 1 2.1 2.4z"/>
					</g>
					<g id="&lt;Group&gt;">
						<path id="&lt;Path&gt;" class="s1" d="m1184.8 1569.1v-0.1c0-1.2 1-2.2 2.2-2.2h39.6c1.2 0 2.1 1 2.1 2.2v0.1c0 1.2-0.9 2.1-2.1 2.1l-39.6 0.1c-1.2 0-2.2-1-2.2-2.2z"/>
						<path id="&lt;Path&gt;" class="s60" d="m1226.7 1553.4l1.5 12.3c0.2 1.5-0.7 2.9-1.8 2.9h-38.7c-1 0-2-0.6-2.5-1.8-0.6-1.2-0.7-3 1.1-5.5 3.3-4.8 14.2-6 19.9-9.9q0.5-0.4 1.1-0.4h17.4c1 0 1.9 1 2 2.4z"/>
					</g>
					<g id="&lt;Group&gt;">
						<path id="&lt;Path&gt;" class="s61" d="m981.1 1165.6l1.5-0.3 79.1-15.4c8.6-1.6 16.8 4.3 17.9 13l24.2 191c0.8 6.4-2.4 12.6-8.2 15.4-13.1 6.7-38.6 18-69.4 24-30.9 6-58.8 5.1-73.5 3.8-6.3-0.5-11.7-5-13.3-11.2l-49.2-186.2c-2.2-8.5 3.2-17.1 11.8-18.7z"/>
					</g>
					<path id="&lt;Path&gt;" class="s1" d="m877.8 1159.5c0.6-8 4.9-14 10.8-15.2l85.2-16.5 1.4-0.3 85.2-16.6c5.9-1.1 12.2 2.9 15.7 10.1l11.8 23.9c3.4 6.7-0.6 14.8-8 16.2l-94.6 18.4-1.4 0.3-94.6 18.4c-7.4 1.4-14.1-4.6-13.5-12z"/>
					<path id="&lt;Path&gt;" class="s1" d="m886 1130.6c-0.7-3.5 1.6-6.9 5.2-7.6l78.7-15.3 1.4-0.3 78.7-15.3c3.5-0.7 7 1.6 7.6 5.1l3.8 19.2-86.9 11.3-84.8 22z"/>
					<g id="&lt;Group&gt;">
						<path id="&lt;Path&gt;" class="s62" d="m1090.5 1196.6l9.5 87.1c0.2 1.5-0.6 2.9-1.9 3.6-8.9 4.4-43.6 20.5-86.9 29-43.4 8.4-81.6 6.4-91.4 5.7-1.5-0.2-2.8-1.2-3.2-2.6l-23.8-84.3c-0.7-2.3 1-4.6 3.4-4.6 43.8 0.7 149.1-19.7 189.4-36.8 2.2-0.9 4.7 0.5 4.9 2.9z"/>
					</g>
					<g id="&lt;Group&gt;">
						<path id="&lt;Path&gt;" class="s12" d="m1008.4 1229.8c19.2 0 34.8 15.5 34.8 34.7 0 19.2-15.6 34.8-34.8 34.8-19.2 0-34.8-15.6-34.8-34.8 0-19.2 15.6-34.7 34.8-34.7z"/>
					</g>
					<path id="&lt;Path&gt;" class="s63" d="m1034.2 1224.4c0.8-0.5 23.9 8.2 23.9 8.2l3.5 7.7-4.7 5.1-7.2 2.4c-18.4 5.3-18.5 4.9-18.8 4.2-0.3-0.6 6.6-5 6-5.5-0.6-0.6-11.5 2.1-11.2 1.1 0.3-0.9 10.1-4.6 9.8-5.2-0.3-0.5-10.8 2.2-11.1 0.8-0.3-1.5 11.3-4.1 10.6-5.1-0.7-1.1-12.5 1.9-12.6 0.6 0-1.1 13.1-4.8 17.3-5.9 0.6-0.2 0.7-0.9 0.3-1.2-6.5-5.8-6.6-6.6-5.8-7.2z"/>
					<path id="&lt;Path&gt;" class="s61" d="m1054.3 1223.3c9.1 2.1 30.5 1.1 46.7-0.2 0.2-13.4 0.7-25.9 1.9-34.7 4.1-31.1 18.6-41.2 18.6-41.2 14.3 1.7 24.3-5.9 24.3-5.9 19.3 0.2 30.5 10.7 30.5 10.7 29.6 25.5 7.2 77.8 7.2 77.8l8.1 69c-18.4 6.3-93.4 2.5-93.4 2.5 0 0 3.7-22 3.1-44.4-23.7-1.3-47-5.1-47-5.1-0.9-5.1 0-28.5 0-28.5z"/>
					<g id="&lt;Group&gt;">
						<path id="&lt;Path&gt;" class="s12" d="m1153.1 1184.5q-0.6 3.8-1.9 7.5-1.4 3.7-3.5 7.1c-1.4 2.2-3 4.3-4.8 6.2-3.6 3.8-7.9 7-12.5 9.5-4.5 2.5-9.4 4.5-14.4 5.9-10 3-20.4 4.1-30.8 4.4-10.3 0.2-20.7-0.5-30.9-1.8 10.3 0.5 20.6 0.7 30.9 0.1 1.2 0 2.5-0.1 3.8-0.2l3.8-0.3c2.6-0.2 5.1-0.6 7.6-1l1.9-0.2 1.9-0.4 3.8-0.7c1.2-0.2 2.5-0.6 3.7-0.9l1.9-0.4c0.6-0.2 1.2-0.4 1.8-0.6 4.9-1.3 9.6-3.3 14.1-5.6 4.5-2.4 8.6-5.4 12.2-9 7.2-7.1 11.7-17 11.6-27.4 0.3 2.6 0.2 5.2-0.2 7.8z"/>
					</g>
					<g id="&lt;Group&gt;">
						<path id="&lt;Path&gt;" class="s12" d="m1071.4 1254q8.6 0.9 17.2 1.4c11.4 0.7 22.9 0.9 34.3 0.2 5.7-0.4 11.4-1 17-2 5.6-0.9 11.2-2.2 16.6-4 5.3-1.9 10.5-4.3 15.2-7.5 4.7-3.2 8.8-7.4 11.8-12.3-2.6 5.1-6.6 9.6-11.2 13.1-4.6 3.5-9.8 6.2-15.3 8.2-10.9 4-22.5 5.8-34 6.5-11.5 0.8-23.1 0.5-34.6-0.6-11.4-1-22.9-2.7-34.1-5.2 5.7 0.9 11.4 1.6 17.1 2.2z"/>
					</g>
				</g>
			</g>
			<g id="&lt;Group&gt;">
				<path id="&lt;Path&gt;" class="s64" d="m184.1 406.8c1.4-2.7 37.5-27.7 37.5-27.7l75.3-37.2-81.1 90.4-23.7 36.8-11.7-48.8c0 0 2.3-10.7 3.7-13.5z"/>
				<path id="&lt;Path&gt;" class="s65" d="m136.6 405.6l160.3-63.1-115.4 77.6z"/>
				<path id="&lt;Path&gt;" class="s66" d="m250.6 446.9l-55.7-17.8 102-87.2z"/>
			</g>
			<g id="&lt;Group&gt;">
				<g id="&lt;Group&gt;">
					<g id="&lt;Group&gt;">
						<path id="&lt;Path&gt;" class="s12" d="m65.4 740.2l2-3.6c3.8 2.2 7.8 3.7 11.9 4.6l-0.9 4c-4.4-1-8.8-2.7-13-5z"/>
					</g>
					<g id="&lt;Group&gt;">
						<path id="&lt;Compound Path&gt;" class="s12" d="m31.4 699.8l3.7-1.7c4 8.4 8.5 15.8 13.3 21.9l-3.1 2.5c-5.1-6.3-9.8-14-13.9-22.7zm-10.3-28.1c-0.9-3.9-1.6-7.8-2.1-11.8-0.5-3.7-0.8-7.4-0.9-11.2l4.1-0.1c0.1 3.6 0.4 7.3 0.8 10.8 0.5 3.8 1.2 7.6 2.1 11.3q0.4 1.7 0.8 3.3l-3.9 1.1q-0.5-1.8-0.9-3.4zm-0.8-49.4c1.5-8.4 3.9-17 7-25.6l3.8 1.4c-3 8.4-5.4 16.7-6.9 24.9zm117.2-53.8q-0.4-0.1-0.8-0.2l0.8-3.9q0.4 0.1 0.7 0.1c0 0 0.2 0 0.5 0 2.2-0.3 7.6-2.4 10-5.4 1.9-2.5 3.1-5.6 3.4-9.3l4.1 0.4c-0.4 4.4-1.9 8.4-4.3 11.4-3.3 4.2-9.9 6.6-12.7 6.9q-1 0.2-1.7 0zm-99.1 4.2c4.1-7.6 8.9-15.1 14.1-22.4l3.3 2.4c-5.1 7.1-9.8 14.5-13.8 21.9zm72.6-27.9c-1.5-3.6-2.4-7.5-3-11.6-0.2-2.2-0.4-4.5-0.4-6.8l4.1-0.1q0 3.3 0.4 6.4c0.4 3.8 1.3 7.4 2.6 10.7 0.9 2.3 2.1 4.6 3.5 6.8l-3.4 2.2c-1.5-2.4-2.8-4.9-3.8-7.6zm10.7-26.2l-0.6-0.1 0.3-4h0.6c9.3 0.8 18.2 4.6 24.4 10.4l-2.8 3c-5.5-5.2-13.5-8.6-21.9-9.3zm-50 13.3c3.8-2.9 10.6-8 14.5-9.8 3.1-1.3 5.9-2.4 8.7-3.4l1.4 3.8c-2.7 0.9-5.5 2-8.4 3.3-2.6 1.2-7.6 4.6-13.7 9.3zm40.6-31.9c3-8.4 7.2-16.3 12.5-23.6l3.3 2.4c-5.1 7-9.1 14.5-12 22.6z"/>
					</g>
				</g>
				<g id="&lt;Group&gt;">
					<path id="&lt;Path&gt;" class="s12" d="m143.6 457.5c3.7-2.8 7.7-5.2 11.7-7.3l1.8 3.7c-3.8 1.9-7.5 4.2-11.1 6.8z"/>
				</g>
			</g>
			<g id="&lt;Group&gt;">
				<path id="&lt;Path&gt;" class="s67" d="m565.2 1049c10.8 0.3 18 2.2 25.8 7.7 10.9 7.6 21.3 18.1 25.4 35.7 10.6 45.6-24.8 49.2-31.1 52.2-6 2.8-11.4 6.6-16.9 10.3-4.3 3-8.8 6.2-10.9 11-1.5 3.4-1.6 7.4-3.8 10.5-3.7 5.3-11.4 5.5-17.9 5-6.6-0.4-2.2 11.7-8.2 8.8-8.3-3.9-42 4-68.2-26.1-12-13.8-28.6-31.9-19.2-52 7.2-15.4 28.3-13.2 29.8-22 0.8-4.5 1.8-9 3.4-13.3 1.7-4.9 4.5-9.5 8.9-12.4 15.3-10 29.4-4.4 37.7-4.4 22 0 20.2-11.7 45.2-11z"/>
				<g id="&lt;Group&gt;">
					<path id="&lt;Path&gt;" class="s8" d="m613.4 1347.1l-3.3 206.1-5.2 14.9-15.8-14.9-15-211.3z"/>
					<path id="&lt;Path&gt;" class="s8" d="m519.1 1354.1h39.5c0 0-18.6 197.9-18.5 199.1 0.2 1.2-6.6 10.1-6.6 10.1l-14.4-10.1z"/>
					<g id="&lt;Group&gt;">
						<path id="&lt;Path&gt;" class="s1" d="m622.8 1521.8c-11.2 4.5-28.7 9-47.9 4.9l-3.6-164.6-2.7-28.9c-2 1.7-3.2 2.6-3.2 2.6l-9.6 188c0 0-21.3 7.7-47.4 2.9-0.1-11.3 6.9-183.9 7-191.9 0.5-57.8 18.4-66.3 18.4-66.3l30.4-7.7 6.7 1.1c10.7-3.5 29.9-7.4 37.9 5.8 11.2 18.9 10.5 76.9 10.5 76.9 0 0 3.6 169.2 3.5 177.2z"/>
					</g>
					<path id="&lt;Path&gt;" class="s8" d="m598.9 1209.7l28.5-13.3-2.6 30.3c0 0 54.1-24.6 56.8-27 0.9-0.9 2-3 3-5.5 1-2.7 1.7-5.5 2.4-8.2 0.9-4.2 4.5-7.6 5.7-8.7 0.5-0.5 2.1-3.3 2.4-4.7 0.3-0.8 1.6-0.8 1.7 0.1l0.3 1.9c0.3 1.9-0.4 3.8-0.8 4.8l0.8-0.3 1.2 12.8-1.5 11.1-8.6 6.4c0 0-75.3 54.3-82.2 47.2-7.4-7.6-7.1-46.9-7.1-46.9z"/>
					<path id="&lt;Path&gt;" class="s68" d="m605.3 1145.7c0 0 5.9 1.4 14.4 11.9 8.4 10.4 16 39.4 16 39.4l-27.1 14.8-17.5-35z"/>
					<g id="&lt;Group&gt;" style="opacity: .5">
						<path id="&lt;Path&gt;" class="s69" d="m533.1 1314.2q2.2 0.7 4.3 1.6 4.2 1.7 8.3 3.6 4.1 2 8.2 4 4 2.1 8 4.4l1.6 0.9-1.8-0.4c-2-0.5-4-0.8-6-1q-2.9-0.3-6-0.4-0.7 0-1.5 0h-1.5c-0.5 0-1 0.1-1.5 0.1q-0.7 0-1.5 0.1l-1.5 0.2-1.5 0.2-0.7 0.1-0.7 0.1-1.5 0.3 1.4-0.3 0.8-0.2 0.7-0.2 1.5-0.2 1.5-0.2q3-0.4 6.1-0.4 3 0 6 0.3c2 0.2 4 0.5 6 0.9l-0.2 0.5c-2.6-1.4-5.3-2.8-8-4.2q-4-2.1-8.1-4.1-4.1-2-8.3-3.8-4.1-1.8-8.4-3.4c1.4 0.5 2.9 0.9 4.3 1.5z"/>
					</g>
					<g id="&lt;Group&gt;" style="opacity: .5">
						<path id="&lt;Path&gt;" class="s69" d="m600.3 1314.9q-4.1 1.9-8.2 3.8-4.1 2-8.1 4.1c-2.7 1.4-5.4 2.8-8 4.3l-0.2-0.5q3-0.6 6-0.9 3-0.3 6-0.3 3.1 0 6.1 0.3l1.5 0.2 1.4 0.3 0.8 0.1 0.7 0.2 1.5 0.4-1.5-0.3-0.7-0.2-0.8-0.1-1.5-0.2-1.5-0.1q-0.7-0.1-1.5-0.1c-0.5-0.1-1-0.1-1.5-0.1h-1.5q-0.7 0-1.5 0-3 0-6 0.4c-2 0.2-4 0.5-5.9 0.9l-1.8 0.4 1.6-0.9q3.9-2.2 8-4.3 4-2.1 8.1-4 4.2-1.9 8.4-3.7 2.1-0.8 4.3-1.6c1.4-0.5 2.8-1 4.3-1.4q-4.3 1.5-8.5 3.3z"/>
					</g>
					<g id="&lt;Group&gt;">
						<path id="&lt;Path&gt;" class="s70" d="m545.5 1289.2q-0.3 0.9-0.7 1.8-0.7 1.7-1.5 3.4-1.6 3.4-3.3 6.7-0.9 1.6-1.8 3.2-0.9 1.7-1.9 3.3c-1.3 2.1-3.3 4-4.9 5.9 1.3-2.1 6.8-11.6 7.4-12.7l4.2-7.3 1.4-2.7 0.9-1.7 0.4-0.8c0.2-0.3 0.3-0.5 0.4-0.8-0.1 0.6-0.4 1.1-0.6 1.7z"/>
					</g>
					<path id="&lt;Path&gt;" class="s71" d="m493 1179.4c12.3-14.8 26.4-30.9 38.9-37.2 4.7-2.4 16-2.8 22.5-3.9 0 0 17.1-2.1 34 0.1 9 3.3 24.9 9 25.1 14.4 1.1 26.9 1.4 47.5 1.2 63.3 0 0 0.5 57.3 0.1 69.6 0 0-62.3 13.4-94.2 5.3 0 0-5.2-74.9 2.3-95.1l-3.2 4.1c0 0-12.8-3-26.7-20.6z"/>
					<path id="&lt;Path&gt;" class="s8" d="m494.8 1181.7c8.5 10.3 17.8 15.8 22.5 17.5l-30.1 36 55.1 59.4-9.7 16.9c-7.7-3.7-9.4-17.8-9.4-17.8 0 0-68.2-45.6-68.2-56.5 0-14.6 39.8-55.5 39.8-55.5z"/>
					<path id="&lt;Path&gt;" class="s72" d="m494.4 1181c0.4 0.6 0.9 1.1 1.4 1.6l1.4 1.6 0.7 0.8 0.8 0.7 1.5 1.5c0.6 0.5 1.1 0.9 1.6 1.4 1.1 0.9 2.2 1.8 3.3 2.7q3.4 2.5 7.1 4.5l1 0.5q0.4 0.3 0.9 0.5 1 0.4 1.9 0.8 0.5 0.3 1 0.4 0.5 0.2 1 0.4 0.7 0.3 1.4 0.5l3.3-4 3.7-4.4c2.5-2.9 5-5.8 7.6-8.7q3.8-4.4 7.7-8.7c2.5-2.8 5.1-5.7 7.8-8.5-2.3 3.1-4.6 6.2-7 9.2q-3.6 4.5-7.2 9c-2.5 3-4.9 6-7.4 8.9l-3.7 4.5-3.7 4.4-0.4 0.4-0.6-0.1c-0.8-0.2-1.5-0.4-2.2-0.7q-1-0.4-2-0.8-1.1-0.5-2-1-0.5-0.3-1-0.5l-1-0.6c-2.5-1.4-4.9-3.1-7.1-5l-1.6-1.4q-0.8-0.7-1.6-1.5c-0.5-0.5-1-1-1.5-1.5l-1.4-1.6-0.7-0.8-0.7-0.9-1.3-1.7c-0.9-1.1-1.6-2.3-2.4-3.5z"/>
					<path id="&lt;Path&gt;" class="s8" d="m581.9 1137.8c0 0-12.4 7.3-22 0l2.3-17.9 19.2-3.9z"/>
					<path id="&lt;Path&gt;" class="s9" d="m561.4 1126.4l0.5-4.4 19.5-6 0.3 11.6c-7.8 2.3-16 0.4-20.3-1.2z"/>
					<path id="&lt;Path&gt;" class="s9" d="m601.8 1081.2c2.9 0.3 4.8 3.5 4.3 7-0.5 3.5-3.3 6-6.2 5.6-2.9-0.3-4.8-3.5-4.3-7 0.5-3.5 3.3-6 6.2-5.6z"/>
					<path id="&lt;Path&gt;" class="s8" d="m597.1 1111.3q-0.4 0.6-0.7 1c-3.4 5.2-8.5 9.2-15 10.9-13.1 3.6-26.6-3.7-31.3-16.3q-0.4 0.6-1 1.1c-2.9 2.2-7.5 1.2-10.4-2.3-2.8-3.5-2.7-8.1 0.2-10.3 1.5-1.2 3.4-1.4 5.4-1-3.9-15.2 6.2-30.9 22.6-33.7 12.2-2.2 24.6 3.8 30 14.5 1.7 3.4 2.6 6.8 2.8 10.2q0.1 1.2 0.3 2.5c0.6 3.8 0.9 8.4 0.4 12.8q-0.2 2.5-0.9 4.9c-0.6 2-1.4 3.9-2.4 5.7z"/>
					<path id="&lt;Path&gt;" class="s58" d="m569.4 1090.6c0.4 1.2-0.4 2.6-1.7 2.9-1.3 0.4-2.7-0.4-3-1.7-0.4-1.2 0.4-2.5 1.7-2.9 1.3-0.3 2.7 0.4 3 1.7z"/>
					<path id="&lt;Path&gt;" class="s58" d="m590.2 1086.4c0.3 1.3-0.4 2.6-1.8 2.9-1.3 0.4-2.6-0.4-3-1.6-0.3-1.3 0.5-2.6 1.8-3 1.3-0.3 2.6 0.4 3 1.7z"/>
					<path id="&lt;Path&gt;" class="s73" d="m571 1085.2c-1.3-0.1-2.5-0.2-3.7-0.1q-1.7 0-3.4 0.5c-1 0.4-2.1 0.8-3 1.5l-0.4 0.3q-0.2 0.1-0.4 0.2l-0.7 0.6c-0.5 0.4-0.9 0.8-1.4 1.2q0.3-0.9 0.8-1.8c0.3-0.5 0.7-1.1 1.2-1.5 0.9-1 2.1-1.7 3.4-2.1 1.3-0.4 2.7-0.5 4.1-0.3 1.3 0.2 2.5 0.7 3.5 1.5z"/>
					<path id="&lt;Path&gt;" class="s74" d="m580.7 1083.1c0.6-1.1 1.5-2.1 2.6-2.8 1.1-0.8 2.5-1.3 3.8-1.4 1.4-0.2 2.8-0.1 4.1 0.5 0.6 0.1 1.1 0.5 1.7 0.9q0.8 0.5 1.5 1.2c-0.7-0.1-1.3-0.3-1.9-0.5l-0.9-0.2q-0.2 0-0.4-0.1h-0.4c-1.2-0.3-2.3-0.2-3.5-0.1q-1.6 0.2-3.3 0.9c-1.1 0.4-2.2 1-3.3 1.6z"/>
					<path id="&lt;Path&gt;" class="s9" d="m578.7 1088.5c0.3 0.7 0.6 1.5 1 2.1 0.4 0.7 0.9 1.4 1.4 1.8l0.2 0.1c0 0.1 0.1 0.1 0.2 0.2 0.2 0.1 0.5 0.2 0.7 0.4 0.2 0.2 0.4 0.4 0.5 0.6q0.3 0.4 0.4 0.8c0.4 1 0.2 2.1-0.4 3-1 1.7-2.9 2.5-4.6 2.6 1.5-0.8 2.9-1.8 3.5-3.2 0.2-0.7 0.3-1.3 0-1.9q-0.2-0.4-0.5-0.6c-0.2-0.2-0.3-0.2-0.5-0.3l-0.3-0.2-0.3-0.2c-0.8-0.7-1.3-1.5-1.7-2.4q-0.5-1.2-0.8-2.4c-0.5-1.7-0.7-3.4-0.6-5.2 0.6 1.6 1.2 3.2 1.8 4.8z"/>
					<path id="&lt;Path&gt;" class="s11" d="m587.7 1101.9c-0.3 3-3.5 5.7-7.7 6.4-4.2 0.6-8.1-1-9.3-3.8z"/>
					<path id="&lt;Path&gt;" class="s63" d="m700.7 1191.1c-5.5 2.8-6.7 1.1-6.7 1.1 0 0-1.9-2.3 2.6-4.3 3.1-1.4 3.1-1.2 3-3.5l0.1-2.9 1.3 0.4c1.2 0.3 2.1 1.3 2.3 2.4 0.1 0.4 0.3 2.4 0.2 3-0.1 2.5-2.8 3.8-2.8 3.8z"/>
					<g id="&lt;Group&gt;">
						<path id="&lt;Path&gt;" class="s11" d="m565.2 1571.3l-47-0.1c-1.5 0-2.6-1.2-2.6-2.6 0-1.5 1.2-2.6 2.6-2.6h47c1.5 0 2.6 1.2 2.6 2.6 0 1.5-1.1 2.7-2.6 2.7z"/>
						<g id="&lt;Group&gt;">
							<path id="&lt;Path&gt;" class="s75" d="m520.4 1547.2h20.7q0.7 0 1.3 0.4c6.8 4.6 19.7 6.1 23.7 11.8 2.1 2.9 2 5.1 1.3 6.5-0.6 1.4-1.8 2.2-3 2.2h-46c-1.4 0-2.4-1.7-2.2-3.5l1.8-14.6c0.2-1.6 1.2-2.8 2.4-2.8z"/>
						</g>
						<g id="&lt;Group&gt;">
							<path id="&lt;Path&gt;" class="s11" d="m538.6 1555.7c-0.3-0.2-0.5-0.8-0.3-1.2 0.9-2 3.8-6.9 9.5-5.9 0.3 0.1 0.6 0.5 0.5 1 0 0.4-0.3 0.7-0.7 0.6-5.1-0.8-7.5 3.5-8.3 5.1-0.1 0.4-0.4 0.5-0.7 0.4z"/>
						</g>
						<g id="&lt;Group&gt;">
							<path id="&lt;Path&gt;" class="s11" d="m543.4 1557.6c-0.4-0.3-0.5-0.8-0.3-1.2 0.9-2 3.7-6.9 9.5-5.9 0.3 0 0.5 0.5 0.5 0.9v0.1c-0.1 0.4-0.4 0.7-0.7 0.6-5.1-0.9-7.5 3.4-8.3 5.1-0.1 0.4-0.5 0.5-0.7 0.4z"/>
						</g>
						<g id="&lt;Group&gt;">
							<path id="&lt;Path&gt;" class="s11" d="m547.8 1559.3c-0.3-0.2-0.4-0.8-0.2-1.2 0.9-2 3.7-6.9 9.4-5.9 0.4 0.1 0.6 0.5 0.5 1 0 0.5-0.3 0.7-0.6 0.7-5.2-0.9-7.6 3.4-8.3 5.1-0.2 0.3-0.5 0.5-0.8 0.3z"/>
						</g>
					</g>
					<g id="&lt;Group&gt;">
						<path id="&lt;Path&gt;" class="s11" d="m633.6 1571.3l-47-0.1c-1.5 0-2.6-1.2-2.6-2.6 0-1.5 1.1-2.6 2.6-2.6h47c1.5 0 2.6 1.2 2.6 2.6 0 1.5-1.1 2.7-2.6 2.7z"/>
						<g id="&lt;Group&gt;">
							<path id="&lt;Path&gt;" class="s76" d="m588.8 1547.2h20.7q0.7 0 1.3 0.4c6.8 4.6 19.7 6.1 23.7 11.8 2.1 2.9 2 5.1 1.3 6.5-0.6 1.4-1.8 2.2-3 2.2h-46.1c-1.3 0-2.3-1.7-2.1-3.5l1.8-14.6c0.2-1.6 1.2-2.8 2.4-2.8z"/>
						</g>
						<g id="&lt;Group&gt;">
							<path id="&lt;Path&gt;" class="s11" d="m607 1555.7c-0.4-0.2-0.5-0.8-0.3-1.2 0.9-2 3.7-6.9 9.5-5.9 0.3 0.1 0.6 0.5 0.5 1-0.1 0.4-0.4 0.7-0.7 0.6-5.1-0.8-7.5 3.5-8.3 5.1-0.1 0.4-0.4 0.5-0.7 0.4z"/>
						</g>
						<g id="&lt;Group&gt;">
							<path id="&lt;Path&gt;" class="s11" d="m611.8 1557.6c-0.4-0.3-0.5-0.8-0.3-1.2 0.9-2 3.7-6.9 9.5-5.9 0.3 0 0.5 0.5 0.5 0.9v0.1c-0.1 0.4-0.4 0.7-0.7 0.6-5.1-0.9-7.6 3.4-8.3 5.1-0.1 0.4-0.5 0.5-0.7 0.4z"/>
						</g>
						<g id="&lt;Group&gt;">
							<path id="&lt;Path&gt;" class="s11" d="m616.2 1559.3c-0.3-0.2-0.4-0.8-0.3-1.2 0.9-2 3.8-6.9 9.5-5.9 0.4 0.1 0.6 0.5 0.5 1 0 0.5-0.3 0.7-0.6 0.7-5.2-0.9-7.6 3.4-8.3 5.1-0.2 0.3-0.5 0.5-0.8 0.3z"/>
						</g>
					</g>
					<path id="&lt;Path&gt;" class="s8" d="m689 1186c0.9 1.4 0.6 9.8 0.6 9.8 0 0-3.8 0.8-4.3 0.5-0.6-0.3 0.6-8.3 1-10.8 0.4-2.5 0.9-2.9 0.9-2.9 0 0 1 2.1 1.8 3.4z"/>
					<g id="&lt;Group&gt;">
						<path id="&lt;Path&gt;" class="s1" d="m695.3 1050.4l84.6-59.8 9.4 13.2-79.8 56.4c-4 2.9-6.3 7.5-6.1 12.4q0 0.3 0 0.3v453.6h-16.2v-453.6-9.3c0-4.7 2.3-9.2 6.3-11.9z"/>
					</g>
					<path id="&lt;Path&gt;" class="s8" d="m701.7 1194.8c-5.5 2.7-6.7 1.1-6.7 1.1 0 0-1.9-2.4 2.6-4.3 3.1-1.4 3.1-1.2 3-3.5l0.1-3 1.3 0.4c1.2 0.4 2 1.3 2.3 2.5 0.1 0.4 0.3 2.3 0.2 2.9-0.2 2.5-2.8 3.9-2.8 3.9z"/>
					<path id="&lt;Path&gt;" class="s8" d="m702.3 1197.1c-5.2 2.7-6.4 1.1-6.4 1.1 0 0-1.8-2.3 2.5-4.1 3-1.3 2.9-1.2 2.8-3.3l0.1-2.9 1.3 0.4c1.1 0.4 1.9 1.2 2.2 2.3 0 0.4 0.2 2.3 0.2 2.9-0.2 2.3-2.7 3.6-2.7 3.6z"/>
					<path id="&lt;Path&gt;" class="s8" d="m702 1200c-4.4 2.2-5.4 0.8-5.4 0.8 0 0-1.5-1.9 2.1-3.4 2.5-1.1 2.5-1 2.4-2.8l0.1-2.4 1.1 0.3c0.9 0.3 1.6 1 1.8 2 0.1 0.3 0.2 1.9 0.2 2.4-0.2 2-2.3 3.1-2.3 3.1z"/>
					<path id="&lt;Path&gt;" class="s9" d="m695 1193.6q-0.3 0.5-0.3 1 0 0.6 0.3 1.1c0.2 0.2 0.6 0.4 0.9 0.4 0.8 0.1 1.5 0 2.3-0.2q1.1-0.3 2.2-0.8c0.3-0.1 0.7-0.3 1-0.5 0.4-0.1 0.7-0.3 1-0.6 0.6-0.4 1.1-1 1.5-1.6q0.3-0.5 0.4-1c0-0.2 0.1-0.4 0.1-0.6v-0.5q0-1.2-0.1-2.3c0.2 0.7 0.2 1.5 0.3 2.2l0.1 0.6c0 0.2-0.1 0.4-0.1 0.6q-0.1 0.6-0.4 1.2c-0.3 0.7-0.9 1.3-1.5 1.8-0.3 0.3-0.7 0.5-1 0.7-0.4 0.1-0.8 0.3-1.1 0.5q-1.1 0.5-2.3 0.8c-0.8 0.1-1.6 0.3-2.4 0.1q-0.4-0.1-0.6-0.2-0.2-0.1-0.3-0.2c-0.1-0.1-0.2-0.2-0.2-0.3q-0.4-0.5-0.3-1.2c0-0.8 0.5-1.5 1.2-1.9-0.3 0.3-0.6 0.6-0.7 0.9z"/>
					<path id="&lt;Path&gt;" class="s8" d="m702 1202.8c-4.4 2.2-5.4 0.8-5.4 0.8 0 0-1.5-1.9 2.1-3.4 2.5-1.1 2.5-1 2.4-2.8l0.1-2.4 1.1 0.3c0.9 0.3 1.6 1 1.8 2 0.1 0.3 0.2 1.9 0.2 2.4-0.2 2-2.3 3.1-2.3 3.1z"/>
					<path id="&lt;Path&gt;" class="s9" d="m696.5 1202q-0.1 0.4-0.1 0.7 0.1 0.4 0.3 0.7 0 0.1 0 0.1 0.1 0.1 0.2 0.1 0.1 0.1 0.3 0.1c0.4 0.1 0.9 0.1 1.4 0q0.7-0.1 1.4-0.3 0.7-0.3 1.4-0.6c0.3-0.1 0.5-0.2 0.7-0.3q0.3-0.2 0.6-0.4c0.8-0.6 1.4-1.4 1.6-2.4 0 1-0.6 2-1.3 2.7q-0.3 0.2-0.7 0.4c-0.2 0.2-0.4 0.3-0.7 0.4q-0.7 0.4-1.4 0.6-0.7 0.3-1.5 0.4c-0.6 0.1-1.1 0.1-1.7-0.1q-0.2-0.1-0.4-0.2 0-0.1-0.1-0.2-0.1-0.1-0.1-0.2-0.2-0.3-0.2-0.7c0-0.6 0.3-1.1 0.6-1.4q-0.2 0.3-0.3 0.6z"/>
					<path id="&lt;Path&gt;" class="s9" d="m695.9 1197.9c0 0.1 0.1 0.2 0.2 0.2q0.1 0.2 0.3 0.2c0.3 0.1 0.5 0.1 0.8 0.1q0.8 0.1 1.6-0.2 0.8-0.2 1.6-0.5 0.8-0.3 1.5-0.6c0.5-0.2 1-0.6 1.4-0.9 0.8-0.7 1.5-1.6 1.7-2.7 0 0.5-0.2 1.1-0.4 1.6q-0.4 0.8-1 1.4-0.7 0.6-1.5 1-0.7 0.4-1.5 0.7c-1.1 0.4-2.2 0.7-3.4 0.6-0.3 0-0.6-0.1-0.9-0.2q-0.2-0.1-0.4-0.2c-0.1-0.2-0.2-0.3-0.3-0.4-0.2-0.6-0.2-1.2 0.1-1.7-0.2 0.5-0.1 1.1 0.2 1.6z"/>
					<path id="&lt;Path&gt;" class="s9" d="m696.5 1199.3q-0.1 0.3-0.1 0.7 0.1 0.3 0.3 0.6 0 0.1 0 0.1 0.1 0.1 0.2 0.1 0.1 0.1 0.3 0.1c0.4 0.2 0.9 0.1 1.4 0q0.7-0.1 1.4-0.3 0.7-0.3 1.4-0.6c0.3-0.1 0.5-0.2 0.7-0.3q0.3-0.2 0.6-0.4c0.8-0.6 1.4-1.4 1.6-2.4 0 1-0.6 2-1.3 2.7q-0.3 0.2-0.7 0.4c-0.2 0.2-0.4 0.3-0.7 0.4q-0.7 0.4-1.4 0.6-0.7 0.3-1.5 0.4c-0.6 0.1-1.1 0.1-1.7-0.1q-0.2-0.1-0.4-0.2 0-0.1-0.1-0.2-0.1-0.1-0.1-0.1-0.2-0.4-0.2-0.8c0-0.6 0.3-1.1 0.6-1.4q-0.2 0.3-0.3 0.7z"/>
					<g id="&lt;Group&gt;">
						<path id="&lt;Path&gt;" class="s72" d="m698.8 1185.9l0.6-1.8 4 0.6v1.7c-0.1 2.8-3.9 4.3-3.9 4.3z"/>
					</g>
				</g>
				<path id="&lt;Path&gt;" class="s77" d="m540.9 1090.9l0.6-0.1-0.1-5.9 1.9-5.5c0 0 8-15.4 8.3-15.8 0.3-0.4 7.1-5.7 7.5-6 0.5-0.3 10.8 0.5 10.8 0.5 0 0 17.4-5.8 15.4 5.1-2 11-14.5 17.8-15.2 17.4 1.9-2.6 1.5-9.4 1.5-9.4-8.8 13.3-26.9 23.3-26.9 23.3 0 0-2.1-1.4-5.4 0.3z"/>
			</g>
		</g>
	</g>
</svg>